<svg width="32" height="32" viewBox="0 0 32 32" fill="none" xmlns="http://www.w3.org/2000/svg">
<g filter="url(#filter0_dddi_8_1191)">
<g clip-path="url(#clip0_8_1191)">
<g opacity="0.14" clip-path="url(#clip1_8_1191)">
<path fill-rule="evenodd" clip-rule="evenodd" d="M15.9612 0H16.0388V1.96123C17.8929 1.96625 19.6625 2.33069 21.2816 2.98855V0H21.3592V3.02038C22.7339 3.58859 23.9986 4.36882 25.1126 5.32031H26.602V0H26.6796V5.32031H32V5.39798H26.6796V6.88728C27.6311 8.0013 28.4113 9.26601 28.9796 10.6406H32V10.7183H29.0114C29.6693 12.3373 30.0337 14.1069 30.0388 15.9609H32V16.0386H30.0388C30.0338 17.8927 29.6694 19.6622 29.0116 21.2812H32V21.3589H28.9798C28.4115 22.7337 27.6312 23.9986 26.6796 25.1128V26.6016H32V26.6792H26.6796V32H26.602V26.6792H25.1132C23.999 27.6309 22.7341 28.4113 21.3592 28.9797V32H21.2816V29.0115C19.6625 29.6693 17.8929 30.0338 16.0388 30.0388V32H15.9612V30.0388C14.1071 30.0338 12.3375 29.6693 10.7184 29.0115V32H10.6408V28.9797C9.26589 28.4113 8.00097 27.6309 6.88678 26.6792H5.39804V32H5.32037V26.6792H0V26.6016H5.32037V25.1128C4.36877 23.9986 3.58847 22.7337 3.02023 21.3589H0V21.2812H2.9884C2.3306 19.6622 1.96621 17.8927 1.96122 16.0386H0V15.9609H1.96122C1.96627 14.1069 2.33073 12.3373 2.9886 10.7183H0V10.6406H3.02044C3.58866 9.26601 4.36889 8.0013 5.32037 6.88728V5.39798H0V5.32031H5.32037V0H5.39804V5.32031H6.88736C8.0014 4.36882 9.26613 3.58859 10.6408 3.02038V0H10.7184V2.98855C12.3375 2.33069 14.1071 1.96626 15.9612 1.96123V0ZM15.9612 2.0389C14.1062 2.04396 12.3364 2.41075 10.7184 3.07245V5.32031H15.9612V2.0389ZM10.6408 3.10449C9.31373 3.65662 8.0902 4.40763 7.00741 5.32031H10.6408V3.10449ZM6.79719 5.39798H5.39804V6.79711C5.8311 6.29865 6.29872 5.83103 6.79719 5.39798ZM5.39804 6.91598C5.86452 6.37206 6.37213 5.86446 6.91606 5.39798H10.6408V10.6406H5.39804V6.91598ZM5.32037 7.00733C4.4077 8.0901 3.65669 9.3136 3.10454 10.6406H5.32037V7.00733ZM3.0725 10.7183C2.41078 12.3362 2.04397 14.106 2.03889 15.9609H5.32037V10.7183H3.0725ZM2.03889 16.0386C2.04391 17.8935 2.41065 19.6633 3.0723 21.2812H5.32037V16.0386H2.03889ZM3.10434 21.3589C3.6565 22.6861 4.40759 23.9098 5.32037 24.9927V21.3589H3.10434ZM5.39804 25.2029V26.6016H6.79662C6.29837 26.1686 5.83093 25.7012 5.39804 25.2029ZM6.91548 26.6016C6.37178 26.1352 5.86436 25.6278 5.39804 25.0841V21.3589H10.6408V26.6016H6.91548ZM7.00683 26.6792C8.08976 27.5921 9.31349 28.3433 10.6408 28.8955V26.6792H7.00683ZM10.7184 28.9276C12.3364 29.5893 14.1062 29.9561 15.9612 29.9611V26.6792H10.7184V28.9276ZM16.0388 29.9611C17.8937 29.9561 19.6636 29.5893 21.2816 28.9276V26.6792H16.0388V29.9611ZM21.3592 28.8955C22.6865 28.3433 23.9102 27.5921 24.9932 26.6792H21.3592V28.8955ZM25.2034 26.6016H26.602V25.2029C26.1691 25.7012 25.7016 26.1686 25.2034 26.6016ZM26.602 25.0841C26.1356 25.6278 25.6282 26.1352 25.0845 26.6016H21.3592V21.3589H26.602V25.0841ZM26.6796 24.9927C27.5924 23.9098 28.3435 22.6861 28.8957 21.3589H26.6796V24.9927ZM28.9277 21.2812C29.5894 19.6633 29.9561 17.8935 29.9611 16.0386H26.6796V21.2812H28.9277ZM29.9611 15.9609C29.956 14.1061 29.5892 12.3362 28.9275 10.7183H26.6796V15.9609H29.9611ZM28.8955 10.6406C28.3433 9.3136 27.5923 8.0901 26.6796 7.00733V10.6406H28.8955ZM26.602 6.79711V5.39798H25.2028C25.7013 5.83103 26.1689 6.29865 26.602 6.79711ZM25.0839 5.39798C25.6279 5.86446 26.1355 6.37206 26.602 6.91598V10.6406H21.3592V5.39798H25.0839ZM24.9926 5.32031C23.9098 4.40763 22.6863 3.65662 21.3592 3.10449V5.32031H24.9926ZM21.2816 3.07245C19.6636 2.41074 17.8937 2.04395 16.0388 2.0389V5.32031H21.2816V3.07245ZM10.7184 5.39798H15.9612V10.6406H10.7184V5.39798ZM21.2816 5.39798H16.0388V10.6406H21.2816V5.39798ZM10.6408 21.2812H5.39804V16.0386H10.6408V21.2812ZM10.7184 21.3589V26.6016H15.9612V21.3589H10.7184ZM15.9612 21.2812H10.7184V16.0386H15.9612V21.2812ZM16.0388 21.3589V26.6016H21.2816V21.3589H16.0388ZM21.2816 21.2812H16.0388V16.0386H21.2816V21.2812ZM26.602 21.2812H21.3592V16.0386H26.602V21.2812ZM10.7184 10.7183H15.9612V15.9609H10.7184V10.7183ZM5.39804 10.7183L10.6408 10.7183V15.9609H5.39804V10.7183ZM21.2816 10.7183H16.0388V15.9609H21.2816V10.7183ZM21.3592 15.9609V10.7183L26.602 10.7183V15.9609H21.3592Z" fill="#0A0D12"/>
</g>
<g filter="url(#filter1_dd_8_1191)">
<rect x="8" y="8" width="16" height="16" rx="8" fill="url(#paint0_linear_8_1191)"/>
<rect x="8" y="8" width="16" height="16" rx="8" fill="url(#paint1_radial_8_1191)" fill-opacity="0.08"/>
<rect x="8" y="8" width="16" height="16" rx="8" fill="url(#paint2_radial_8_1191)" fill-opacity="0.18"/>
<rect x="8" y="8" width="16" height="16" rx="8" fill="url(#paint3_radial_8_1191)" fill-opacity="0.05"/>
<path d="M20.8 12.0414C20.8 13.3898 18.651 12.5297 16 12.5297C13.349 12.5297 11.2 13.3898 11.2 12.0414C11.2 10.693 13.349 9.59998 16 9.59998C18.651 9.59998 20.8 10.693 20.8 12.0414Z" fill="url(#paint4_linear_8_1191)" fill-opacity="0.4"/>
</g>
<path d="M23.3139 4.49698C22.4414 4.23919 21.5205 4.73552 21.2609 5.61271C21.2563 5.62787 20.9997 6.49572 18.6341 14.4971L17.7983 13.9629L15.3155 3.72945C15.1002 2.84293 14.2067 2.29877 13.3202 2.51399C12.3357 2.75311 11.8685 3.6338 12.0307 4.45441L13.4637 11.8101C13.2042 10.9126 12.2774 10.3666 11.3559 10.5906C10.4571 10.8087 9.87832 11.685 10.0343 12.5969C10.266 13.9518 10.7982 16.9626 10.565 15.6752C10.4141 14.842 9.60093 14.2189 8.63452 14.4534C7.88564 14.6353 7.40098 15.3609 7.51996 16.122C7.71126 17.3439 8.02212 19.1542 8.22975 20.456C8.25133 20.5901 8.28983 20.719 8.34348 20.8392L8.88414 23.7898C9.10052 24.9691 9.74616 25.9851 10.6391 26.6779C11.4912 27.3393 12.092 28.2713 12.3421 29.3206C12.3719 29.4454 12.4834 29.5321 12.6117 29.5321H20.14C20.3816 29.532 20.5814 29.3458 20.6042 29.1052C20.6603 28.513 20.8885 27.4027 21.8185 26.4196L22.7173 25.4689C23.583 24.5538 24.0517 23.3154 23.9876 22.0319C23.8804 19.8885 23.8807 19.9306 23.8592 19.7923C23.7739 19.2421 23.6405 18.7597 23.3402 18.203C22.9701 17.5239 22.4341 16.9564 21.9159 16.602C22.2606 15.2244 24.4355 6.5313 24.4477 6.48231C24.6629 5.62373 24.1625 4.74836 23.3139 4.49698Z" fill="#B2CCFF"/>
<path d="M12.9346 29.3206C12.6025 29.3206 12.3008 29.1167 12.1876 28.8045C11.8839 27.967 11.3487 27.2287 10.6391 26.678C9.74616 25.9851 9.10052 24.9691 8.88414 23.7898L8.34348 20.8392C8.66893 21.5701 9.48936 21.9114 10.2442 21.6645L10.6338 23.7898C10.8502 24.9691 11.4959 25.9851 12.3888 26.678C12.903 27.0771 13.3256 27.5747 13.635 28.1372C13.9277 28.6693 13.5418 29.3206 12.9346 29.3206Z" fill="#E8F3FF"/>
<path d="M13.4888 5.03765L14.6255 10.8741C14.1705 10.7049 13.6862 10.7263 13.2846 10.8904L12.0307 4.45442C11.9589 4.09048 12.0033 3.75862 12.1287 3.47517C12.5416 2.53908 13.953 3.15789 13.5733 4.10797C13.459 4.39376 13.4246 4.71395 13.4888 5.03765Z" fill="#E8F3FF"/>
<path d="M23.2154 5.80055C22.8473 6.00235 22.5563 6.34412 22.4274 6.77922L20.1802 14.3787L19.4325 13.9005C19.1706 13.7331 18.8213 13.8632 18.7332 14.1612L21.2609 5.61275C21.5012 4.80089 22.2099 4.41012 22.9045 4.43462C23.6464 4.46028 23.8657 5.44244 23.2154 5.80055Z" fill="#E8F3FF"/>
<path d="M22.0746 15.968C21.9126 16.6126 21.9159 16.5967 21.9159 16.6026C21.7987 16.5194 22.055 16.6857 18.6341 14.4971L18.7332 14.1611C18.8213 13.8631 19.1706 13.733 19.4325 13.9004L21.8733 15.4618C22.0425 15.5697 22.1234 15.7738 22.0746 15.968Z" fill="#B9DCFF"/>
<path d="M8.22975 20.456C8.02212 19.1542 7.71126 17.3438 7.51996 16.122C7.40098 15.3608 7.88564 14.6353 8.63452 14.4533C9.60093 14.2189 10.4087 14.8429 10.565 15.6752L11.3092 19.9491C11.4282 20.7412 10.9266 21.5029 10.1457 21.6924C9.19121 21.924 8.36728 21.3107 8.22975 20.456Z" fill="#B2CCFF"/>
<path d="M13.2205 19.6861C12.1926 19.9356 11.1771 19.2543 11.0059 18.2274L10.0343 12.5969C9.87972 11.6847 10.4571 10.8087 11.3559 10.5906C12.2774 10.3666 13.2042 10.9125 13.4637 11.8101C13.4666 11.8195 13.4695 11.8288 13.4713 11.8387C13.4713 11.8476 13.2818 11.9376 13.1528 12.184C12.3555 13.6771 12.8875 15.53 14.342 16.3722L14.5713 17.5725C14.7602 18.5249 14.1642 19.457 13.2205 19.6861Z" fill="#B2CCFF"/>
<path d="M21.9535 16.6278C22.4 16.9468 21.9312 17.623 21.4717 17.323C19.2123 15.8478 15.5808 13.5435 15.5808 13.5494C15.1807 13.3091 14.5742 13.4566 14.3193 13.9337C14.3034 13.9635 14.288 13.9934 14.2731 14.0235C13.9092 14.7598 12.7968 14.5343 12.7828 13.7131C12.774 13.1969 12.8926 12.6713 13.1528 12.184C13.4076 11.7069 14.0142 11.5594 14.4143 11.7997C14.4202 11.7997 21.8506 16.5543 21.9535 16.6278Z" fill="#E8F3FF"/>
<path d="M17.144 23.2197C17.1838 23.5592 16.7182 23.7151 16.5601 23.392C16.5583 23.389 16.5572 23.3855 16.5554 23.3826C15.9515 22.2004 15.8005 20.8661 16.0827 19.6155C16.1981 19.1041 16.7775 18.8026 17.3018 19.0824C17.6971 19.2934 17.8518 19.778 17.6577 20.1818C17.3459 20.8306 16.9886 21.8944 17.144 23.2197Z" fill="#E8F3FF"/>
<path d="M11.2007 13.1801C11.6393 15.7446 11.8785 17.2152 12.0382 18.0984C12.1579 18.7603 11.1651 18.9708 11.0224 18.3134C11.0099 18.2555 11.0695 18.6506 10.0343 12.5969C9.85458 11.5459 10.5861 10.7428 11.4512 10.5709C11.9799 10.4658 12.292 11.1598 11.865 11.4888C11.3726 11.8682 11.0846 12.5007 11.2007 13.1801Z" fill="#E8F3FF"/>
<path d="M8.68642 16.7052C8.9697 18.5144 9.14286 19.6227 9.26475 20.3221C9.38047 20.9862 8.38384 21.1914 8.24392 20.5319C8.24264 20.526 7.62505 16.7931 7.51995 16.122C7.39753 15.339 7.91515 14.5463 8.80692 14.4203C9.32629 14.3469 9.59667 15.0066 9.19547 15.3445C8.81059 15.6686 8.60366 16.1755 8.68642 16.7052Z" fill="#E8F3FF"/>
<path d="M16.6721 17.6197C15.8619 17.187 14.3712 16.3885 14.342 16.3722C12.8875 15.53 12.3555 13.6771 13.1528 12.184C13.3452 11.8166 13.7809 11.6123 14.2009 11.7174C14.4157 11.7746 14.1572 11.6331 17.7983 13.9629L17.5242 12.8331C17.4956 12.7165 17.4233 12.615 17.3224 12.5503C17.3224 12.5503 14.9054 11.0047 14.8897 10.9954C13.9536 10.476 12.8139 10.839 12.3299 11.7442C11.2803 13.7099 12.0097 16.1351 13.886 17.1864C14.0797 17.2949 13.6774 17.0757 14.5678 17.5538C14.8413 19.012 13.4692 20.0789 12.2016 19.6377C11.6335 19.4412 11.1762 18.9664 11.0293 18.3412L11.3092 19.9492C11.4294 20.7347 10.9305 21.5021 10.1457 21.6925C9.33556 21.889 8.6281 21.4784 8.34348 20.8392L8.5878 22.1722C8.61725 22.333 8.72818 22.4684 8.88157 22.5249C10.283 23.0414 11.9336 22.2067 12.2197 20.6117C13.3545 20.8564 14.6166 20.3463 15.2188 19.2168C14.8194 20.7661 15.0038 22.3931 15.722 23.802C15.8462 24.0452 16.1495 24.1321 16.3822 23.9898C16.5881 23.8637 16.6671 23.6003 16.5554 23.3826C15.295 20.9161 16.3804 18.6211 16.7654 17.9393C16.8301 17.8256 16.7875 17.681 16.6721 17.6197Z" fill="#B9DCFF"/>
<path d="M12.2715 8.12952C12.3208 8.38247 12.5661 8.54746 12.8187 8.4983C13.0716 8.44901 13.2367 8.204 13.1875 7.95111L12.4885 4.36387C12.3788 3.81009 12.6671 3.15255 13.4303 2.96732C14.067 2.81282 14.7073 3.20294 14.8618 3.83972L16.7937 11.8C16.8455 12.0134 17.0365 12.1566 17.2468 12.1566C17.5498 12.1566 17.7717 11.8729 17.7006 11.5799L15.7687 3.61972C15.6352 3.06979 15.2956 2.60472 14.8124 2.31025C13.2734 1.37223 11.2056 2.69005 11.5729 4.5438L12.2715 8.12952Z" fill="#155EEF"/>
<path d="M23.446 4.04977C22.3248 3.71826 21.1461 4.35609 20.8135 5.48068L18.7845 12.3428C18.7115 12.5899 18.8525 12.8495 19.0996 12.9225C19.3467 12.9955 19.6062 12.8544 19.6793 12.6074L21.7085 5.74529C21.895 5.11429 22.5559 4.75963 23.1814 4.94469C23.7924 5.12537 24.1499 5.75106 23.9953 6.36918L21.9228 14.653C21.8491 14.9477 22.0724 15.2329 22.3758 15.2329C22.5848 15.2329 22.7751 15.0914 22.8281 14.8794L24.9006 6.59559C25.1769 5.49094 24.538 4.37265 23.446 4.04977Z" fill="#155EEF"/>
<path d="M24.3626 20.1681C24.2807 18.5129 23.3983 16.9916 22.0023 16.0985C22.0023 16.0985 14.6692 11.4072 14.6614 11.4028C13.9764 11.0183 13.1112 11.2713 12.7412 11.9642C11.8083 13.7119 12.4667 15.8954 14.2089 16.8315C14.8164 17.1578 16.0812 17.833 16.2351 17.9153C15.1954 19.793 15.2158 22.1174 16.367 23.9994C16.5014 24.2192 16.7886 24.2883 17.0085 24.1539C17.2283 24.0194 17.2975 23.7322 17.163 23.5124C16.1403 21.8404 16.1548 19.7721 17.2009 18.1146L17.2831 17.9845C17.4278 17.7552 17.347 17.4516 17.1085 17.324C16.7854 17.1512 15.2571 16.3354 14.6506 16.0095C13.3603 15.3162 12.8731 13.6987 13.5644 12.4037C13.6861 12.1758 13.9684 12.0909 14.1947 12.2112L21.4994 16.8845C22.6416 17.6153 23.3635 18.86 23.4305 20.2143L23.5217 22.0552C23.578 23.1931 23.1613 24.3204 22.3785 25.1481L21.4794 26.0988C20.5715 27.0588 20.1192 28.3152 20.1192 29.506C20.1068 29.7349 20.2648 29.9437 20.4962 29.9886C20.749 30.0377 20.9941 29.8726 21.0432 29.6195C21.0523 29.5725 21.0523 29.5372 21.0524 29.4964C21.0526 29.0187 21.1609 27.7936 22.1574 26.7399L23.0564 25.7893C24.0132 24.7776 24.5224 23.3998 24.4537 22.009L24.3626 20.1681Z" fill="#155EEF"/>
<path d="M13.6187 18.9883C12.843 19.5912 11.7128 19.1827 11.4857 18.243L10.4944 12.5189C10.3504 11.6681 11.0742 10.905 11.9388 11.0176C12.1942 11.051 12.4285 10.8708 12.4618 10.6153C12.4951 10.3597 12.315 10.1256 12.0594 10.0923C10.5692 9.89748 9.3246 11.2136 9.57463 12.6762C10.3479 17.1999 9.91343 14.1747 10.8486 20.0235C10.9367 20.5742 10.5727 21.1087 10.0356 21.2391C9.36111 21.4026 8.78645 20.9839 8.69062 20.3827C8.59456 19.7801 8.08359 16.7056 7.98106 16.05C7.92618 15.6992 8.05472 15.3519 8.32493 15.1209C8.52084 14.9535 8.54394 14.659 8.37655 14.4631C8.20916 14.2672 7.91469 14.2442 7.71872 14.4115C7.20034 14.8545 6.95375 15.5209 7.05908 16.1942C7.16232 16.8541 7.67346 19.9301 7.76905 20.5297C7.79338 20.682 7.83566 20.8296 7.89317 20.9702L8.42519 23.874C8.65615 25.1342 9.34075 26.2609 10.3529 27.0464C11.1183 27.6403 11.6636 28.4865 11.8883 29.4289L11.939 29.6415C11.9901 29.8558 12.1814 30 12.3925 30C12.6945 30 12.9166 29.7178 12.8467 29.4251L12.7961 29.2125C12.5222 28.064 11.8578 27.0329 10.925 26.3091C10.0944 25.6645 9.53264 24.74 9.34309 23.7058L9.04628 22.0859C9.43436 22.2283 9.84898 22.2446 10.2556 22.1459C11.2317 21.9091 11.8876 20.9615 11.7814 19.9653C12.5771 20.3587 13.5098 20.255 14.1913 19.7251C14.3948 19.567 14.4315 19.2738 14.2733 19.0703C14.1153 18.8669 13.8221 18.8302 13.6187 18.9883Z" fill="#155EEF"/>
<path d="M0 16H32V19.2C32 23.6804 32 25.9206 31.1281 27.6319C30.3611 29.1372 29.1372 30.3611 27.6319 31.1281C25.9206 32 23.6804 32 19.2 32H12.8C8.31958 32 6.07937 32 4.36808 31.1281C2.86278 30.3611 1.63893 29.1372 0.871948 27.6319C0 25.9206 0 23.6804 0 19.2V16Z" fill="white" fill-opacity="0.2"/>
<path fill-rule="evenodd" clip-rule="evenodd" d="M15.2094 0.017257C10.0817 0.262671 5.50774 2.83717 2.65908 7.08137C1.16745 9.30371 0.29961 11.741 0.0445469 14.4242C-0.0147933 15.0487 -0.0148675 16.801 0.0444356 17.413C0.254 19.5754 0.812852 21.4991 1.77024 23.3537C3.05513 25.8428 4.94718 27.9451 7.25585 29.4488C9.31646 30.7911 11.6138 31.6223 14.0775 31.9171C14.8521 32.0097 16.5778 32.0288 17.3724 31.9535C19.0116 31.7982 20.4046 31.4728 21.8337 30.9116C25.5744 29.4425 28.533 26.7346 30.293 23.1692C33.0428 17.5987 32.4386 11.1363 28.7101 6.24112C27.0659 4.08243 24.8781 2.39121 22.3182 1.29997C20.1058 0.356836 17.5919 -0.0967601 15.2094 0.017257ZM14.9682 1.07127C13.5211 1.20182 12.3552 1.43384 11.1643 1.82832C6.56258 3.35268 2.92999 7.12248 1.5901 11.7642C0.907411 14.1292 0.826917 16.8562 1.36829 19.2764C2.1167 22.622 4.02186 25.6367 6.76669 27.8188C7.16021 28.1316 8.11226 28.7701 8.56657 29.0258C10.747 30.2533 13.0307 30.8835 15.5805 30.9614C18.048 31.0367 20.4168 30.5097 22.6872 29.3804C25.6011 27.9309 27.8972 25.6554 29.3504 22.777C30.1671 21.1594 30.6376 19.5978 30.8721 17.7267C30.9648 16.9874 30.9842 15.3281 30.909 14.5718C30.4227 9.67827 27.7317 5.49078 23.5222 3.07705C21.7195 2.04333 19.745 1.39048 17.6587 1.13831C17.198 1.08263 15.3522 1.03666 14.9682 1.07127ZM14.5126 2.45003C14.4689 2.51202 14.4684 2.58416 14.5097 2.92049C14.6569 4.12021 14.684 4.8504 14.687 7.6902C14.689 9.65491 14.6743 10.762 14.637 11.4462C14.5879 12.3481 14.5886 12.4207 14.6467 12.4784C14.6959 12.5273 14.7937 12.5427 15.1077 12.551C16.2084 12.5802 17.1813 12.6973 18.0731 12.9079C18.8465 13.0906 19.1221 13.1269 19.5554 13.1029C20.2882 13.0624 20.7922 12.8605 21.2163 12.4375C21.362 12.2923 21.5377 12.0776 21.6067 11.9605C21.8978 11.4671 22.062 10.6951 21.9833 10.1905C21.8712 9.47234 21.4386 8.74588 20.9102 8.38866C20.8073 8.31907 20.7137 8.23896 20.7023 8.21066C20.6693 8.12904 20.7807 8.0372 21.0167 7.95167C21.4835 7.78245 21.8294 7.43343 22.0477 6.91153C22.5386 5.738 22.232 4.52322 21.2486 3.74458C20.1664 2.88787 17.9615 2.37822 15.3321 2.37712C14.608 2.37682 14.5612 2.38095 14.5126 2.45003ZM12.5374 2.67456C12.0493 2.8054 11.2806 3.0441 10.8598 3.19549C10.6351 3.27634 10.5482 3.32615 10.5289 3.38519C10.493 3.49526 10.5066 3.73145 10.5901 4.44311C10.794 6.18156 11.22 11.9441 11.22 12.963C11.22 13.5156 11.2639 13.5404 11.8323 13.3091C12.1752 13.1696 12.8671 12.9431 13.3831 12.8014C13.6865 12.7181 13.6961 12.6839 13.5812 12.0974C13.2927 10.6256 13.1768 8.46965 13.1926 4.86745L13.2026 2.57973L13.0742 2.57242C13.0035 2.5684 12.7619 2.61438 12.5374 2.67456ZM9.41221 3.8534C9.24918 3.91864 8.44703 4.38489 8.07414 4.63111C7.43001 5.05656 7.13346 5.29407 7.06814 5.43698C7.01455 5.55428 7.00806 5.85228 7.00806 8.18834C7.00806 10.3796 7.0196 10.976 7.07868 11.8343C7.14351 12.7762 7.1444 12.8653 7.08974 12.9196C7.01463 12.9943 6.94846 12.9468 6.82562 12.7298C6.09795 11.4447 5.82771 10.9499 5.24437 9.83457C4.633 8.66573 4.54724 8.52043 4.46857 8.52043C4.39531 8.52043 4.3363 8.59326 4.12492 8.94476C3.66181 9.71469 2.75872 11.5624 2.75872 11.74C2.75872 11.7981 5.46922 14.9687 6.60719 16.2417C6.94827 16.6232 6.95622 16.6255 7.16727 16.4029C7.26331 16.3015 7.53396 16.0652 7.76868 15.8777C8.35143 15.4121 9.17897 14.7045 9.17852 14.6721C9.17834 14.6575 9.15433 14.4298 9.1252 14.1659C9.01264 13.147 8.98354 12.2489 9.00466 10.445C9.02596 8.62496 9.0473 8.19402 9.18131 6.87843C9.2615 6.09072 9.36263 5.4437 9.5549 4.48798C9.64527 4.03885 9.65915 3.91303 9.62319 3.86993C9.57238 3.80908 9.531 3.80584 9.41221 3.8534ZM17.3079 4.60469C17.2663 4.71347 17.1952 5.74173 17.195 6.23898L17.1948 6.5773L17.3711 6.63442C17.6997 6.74091 17.9126 6.77109 18.3466 6.77279C18.714 6.77423 18.8086 6.76209 18.9709 6.69265C19.2805 6.56022 19.4672 6.29783 19.5169 5.92519C19.6021 5.2871 19.0418 4.81642 17.9556 4.61355C17.3443 4.49938 17.3481 4.49942 17.3079 4.60469ZM23.6956 4.83978C23.6773 4.87531 23.6519 5.22813 23.6392 5.62387C23.5974 6.93348 23.3737 8.82296 23.0933 10.2362C22.8434 11.4959 22.4703 12.7484 22.015 13.8566C21.8907 14.1592 21.7972 14.428 21.8072 14.4539C21.8172 14.4799 21.9813 14.5894 22.1718 14.6973C23.3767 15.3798 25.9626 17.3715 26.6061 18.1126C26.7826 18.3159 26.8752 18.3591 26.9457 18.2709C26.966 18.2456 27.0431 18.0172 27.1171 17.7636C27.191 17.5099 27.3108 17.1208 27.3833 16.8989C27.4558 16.677 27.5101 16.4621 27.5041 16.4213C27.4976 16.3775 27.3863 16.2738 27.2333 16.169C26.8339 15.8953 26.2379 15.4138 25.7755 14.9914C25.5451 14.7809 25.2117 14.4799 25.0343 14.3224C24.5643 13.905 24.5797 13.9525 24.7205 13.3529C24.8563 12.7749 24.9041 12.6567 25.007 12.644C25.0476 12.639 25.1498 12.6888 25.234 12.7547C25.5827 13.0276 26.4022 13.7563 26.713 14.0697C26.9413 14.3 27.0731 14.4058 27.1317 14.4058C27.2295 14.4058 27.2253 14.4158 27.3021 13.9999C27.3403 13.7929 27.411 13.5859 27.51 13.391C27.5925 13.2286 27.6601 13.0702 27.6601 13.0389C27.6601 12.9213 26.867 12.0357 26.1086 11.3065C25.676 10.8907 25.3221 10.5272 25.3221 10.4989C25.3221 10.4211 25.6237 9.23095 25.6622 9.15693C25.6807 9.12143 25.7107 9.09236 25.729 9.09236C25.797 9.09236 26.6058 9.89922 26.9649 10.3254C27.3831 10.8215 27.8955 11.4955 28.2244 11.9817C28.3452 12.1605 28.4683 12.3159 28.4979 12.3272C28.5927 12.3634 28.6621 12.2656 28.6621 12.0959C28.6621 12.0075 28.7038 11.8115 28.7549 11.6603C28.8059 11.5092 28.8474 11.3552 28.8471 11.3182C28.8457 11.1464 28.5179 10.3022 28.2191 9.70074C27.643 8.54113 26.9411 7.57567 25.9161 6.53295C25.3068 5.9132 24.8663 5.51797 24.2713 5.05722C23.8991 4.76893 23.7594 4.7162 23.6956 4.83978ZM17.1352 8.54526C17.0987 8.604 17.0508 9.43991 17.0484 10.0601C17.0465 10.5465 17.0497 10.5688 17.1303 10.6213C17.2977 10.7303 17.7188 10.8031 18.1968 10.8057C18.6222 10.8079 18.6776 10.8002 18.8648 10.7122C19.2158 10.5471 19.4004 10.2981 19.4438 9.93132C19.4953 9.49522 19.2498 9.08391 18.8038 8.85916C18.3389 8.62492 17.2169 8.41386 17.1352 8.54526ZM15.4742 14.0953C14.9447 14.2227 14.4358 14.6253 14.1922 15.1091C14.0084 15.4743 13.9513 15.7429 13.9771 16.1216C14.0753 17.5614 15.6267 18.4074 16.9698 17.7535C17.2607 17.6119 17.6485 17.2424 17.7987 16.9637C17.927 16.7257 18.0486 16.2622 18.0478 16.0142C18.0464 15.5289 17.8213 14.9959 17.4705 14.6471C16.9573 14.1367 16.1868 13.9238 15.4742 14.0953ZM7.77551 16.9251C7.75388 16.9511 7.62755 17.2316 7.4948 17.5486C6.70609 19.4319 5.79891 21.0365 4.52995 22.7931C4.24308 23.1902 4.16663 23.3211 4.18322 23.3869C4.21135 23.4983 4.56895 23.9953 5.05399 24.5973C5.81888 25.5465 6.84117 26.5072 7.71762 27.1003C8.19423 27.4229 9.06793 27.8512 9.40471 27.9274C9.72502 27.9998 10.2877 28.0009 10.563 27.9296C11.7227 27.6292 12.4782 26.27 12.2031 24.9787C12.1251 24.6127 11.8266 24.0356 11.5463 23.7087C11.4179 23.559 11.2961 23.4137 11.2758 23.3859C11.2121 23.2985 11.3048 23.2149 11.5566 23.1324C11.9047 23.0184 12.0017 22.9581 12.2284 22.7146C12.7416 22.1634 13.0297 21.1418 12.8752 20.4203C12.7873 20.0094 12.5716 19.5934 12.2929 19.2973C11.9028 18.8825 11.4539 18.6222 10.552 18.2877C9.43956 17.875 8.79246 17.546 8.10903 17.0458C7.8602 16.8636 7.83459 16.8544 7.77551 16.9251ZM23.9861 17.1111C23.9351 17.1376 23.643 17.2983 23.337 17.4682C22.3072 18.04 21.5855 18.3481 20.1695 18.8208C19.6722 18.9867 19.2901 19.1341 19.2725 19.1666C19.2224 19.2598 19.6082 21.1368 19.6955 21.2246C19.7345 21.2638 19.8502 21.2415 20.3338 21.1013C20.6587 21.0073 21.0468 20.891 21.1963 20.8429L21.4681 20.7556L21.5564 20.9541C21.605 21.0633 21.6855 21.2909 21.7355 21.4599C21.7854 21.6288 22.0853 22.6222 22.4019 23.6674C23.0002 25.6426 23.1949 26.3695 23.3011 27.0251C23.3751 27.4814 23.4012 27.5417 23.5253 27.5417C23.8115 27.5417 25.6728 26.0553 25.955 25.6014L26.0308 25.4793L25.5807 24.5289C25.3331 24.0062 24.9044 23.0142 24.6281 22.3244C24.0912 20.9844 23.8302 20.3636 23.6805 20.0707L23.5872 19.8882L24.0928 19.6622C24.8181 19.338 25.4041 19.0383 25.4832 18.9511C25.5766 18.8481 25.5425 18.7644 25.2956 18.4901C25.1825 18.3645 24.9058 18.0043 24.6807 17.6898C24.4556 17.3752 24.2532 17.1056 24.2308 17.0907C24.1705 17.0504 24.0901 17.0571 23.9861 17.1111ZM17.8257 19.2775C17.3126 19.3344 15.4339 19.3593 14.8197 19.3173C14.0604 19.2655 14.0776 19.255 14.0775 19.7694C14.0774 20.6758 13.7732 23.6994 13.4626 25.8813C13.3173 26.9022 13.1982 27.5393 13 28.3553C12.8987 28.7726 12.8158 29.1396 12.8158 29.1708C12.8158 29.2839 12.9521 29.3448 13.3724 29.4192C15.2874 29.7587 17.3575 29.7338 19.2407 29.3488C19.8841 29.2173 20.5585 29.0258 20.6306 28.954C20.7059 28.8792 20.6996 28.8164 20.538 28.0187C20.4582 27.6245 20.3722 27.172 20.347 27.0132C20.3217 26.8545 20.2744 26.6927 20.2417 26.6538C20.1837 26.5848 20.1688 26.5875 19.6093 26.7687C18.6831 27.0688 17.841 27.2147 16.7309 27.2672L16.2114 27.2917L16.122 27.196L16.0326 27.1001L16.0573 26.3384C16.0731 25.8521 16.0988 25.5417 16.1286 25.4799L16.1751 25.3832L17.3808 25.3563C18.0439 25.3416 18.6616 25.3167 18.7535 25.3009L18.9205 25.2723L18.9191 25.0141C18.9165 24.5098 18.8573 23.4624 18.8239 23.3303C18.767 23.1047 18.7422 23.0983 18.1844 23.1652C17.6982 23.2234 16.4119 23.2473 16.2392 23.2013C16.1575 23.1796 16.1558 23.168 16.1577 22.6576C16.1604 21.9622 16.2036 21.5638 16.2827 21.5063C16.3261 21.4748 16.611 21.4601 17.2612 21.4561C18.1825 21.4504 18.6498 21.413 18.7414 21.3375C18.8139 21.2776 18.8027 21.1383 18.6818 20.5953C18.622 20.3265 18.5383 19.9262 18.4958 19.7057C18.4533 19.4852 18.4094 19.2901 18.3983 19.2721C18.3757 19.2357 18.1867 19.2375 17.8257 19.2775ZM9.00162 19.6322C8.90713 19.8137 8.28363 21.3136 8.29707 21.3269C8.30557 21.3354 8.4775 21.4258 8.67916 21.5279C9.33806 21.8614 9.76914 21.9391 10.0941 21.7826C10.4989 21.5878 10.7331 21.0045 10.5734 20.5887C10.4593 20.2915 10.1198 20.0088 9.56889 19.7521C9.17147 19.5669 9.04912 19.541 9.00162 19.6322ZM7.49317 22.9609C7.44537 23.0527 7.15379 23.7424 6.93933 24.2708C6.88956 24.3935 6.90849 24.4132 7.50891 24.8617C8.31685 25.4652 8.9261 25.6421 9.36048 25.3994C9.85906 25.1208 9.91165 24.3615 9.46324 23.9156C9.27163 23.7251 9.08753 23.6076 8.3855 23.2277C7.63583 22.8221 7.57485 22.8038 7.49317 22.9609Z" fill="url(#paint5_linear_8_1191)"/>
</g>
</g>
<defs>
<filter id="filter0_dddi_8_1191" x="-3" y="-2" width="38" height="38" filterUnits="userSpaceOnUse" color-interpolation-filters="sRGB">
<feFlood flood-opacity="0" result="BackgroundImageFix"/>
<feColorMatrix in="SourceAlpha" type="matrix" values="0 0 0 0 0 0 0 0 0 0 0 0 0 0 0 0 0 0 127 0" result="hardAlpha"/>
<feOffset dy="1"/>
<feGaussianBlur stdDeviation="1"/>
<feColorMatrix type="matrix" values="0 0 0 0 0.0392157 0 0 0 0 0.0509804 0 0 0 0 0.0705882 0 0 0 0.06 0"/>
<feBlend mode="normal" in2="BackgroundImageFix" result="effect1_dropShadow_8_1191"/>
<feColorMatrix in="SourceAlpha" type="matrix" values="0 0 0 0 0 0 0 0 0 0 0 0 0 0 0 0 0 0 127 0" result="hardAlpha"/>
<feOffset dy="1"/>
<feGaussianBlur stdDeviation="1.5"/>
<feColorMatrix type="matrix" values="0 0 0 0 0.0392157 0 0 0 0 0.0509804 0 0 0 0 0.0705882 0 0 0 0.1 0"/>
<feBlend mode="normal" in2="effect1_dropShadow_8_1191" result="effect2_dropShadow_8_1191"/>
<feColorMatrix in="SourceAlpha" type="matrix" values="0 0 0 0 0 0 0 0 0 0 0 0 0 0 0 0 0 0 127 0" result="hardAlpha"/>
<feMorphology radius="0.5" operator="erode" in="SourceAlpha" result="effect3_dropShadow_8_1191"/>
<feOffset dy="1"/>
<feGaussianBlur stdDeviation="0.5"/>
<feComposite in2="hardAlpha" operator="out"/>
<feColorMatrix type="matrix" values="0 0 0 0 0.0392157 0 0 0 0 0.0509804 0 0 0 0 0.0705882 0 0 0 0.13 0"/>
<feBlend mode="normal" in2="effect2_dropShadow_8_1191" result="effect3_dropShadow_8_1191"/>
<feBlend mode="normal" in="SourceGraphic" in2="effect3_dropShadow_8_1191" result="shape"/>
<feColorMatrix in="SourceAlpha" type="matrix" values="0 0 0 0 0 0 0 0 0 0 0 0 0 0 0 0 0 0 127 0" result="hardAlpha"/>
<feOffset dy="-0.5"/>
<feGaussianBlur stdDeviation="0.25"/>
<feComposite in2="hardAlpha" operator="arithmetic" k2="-1" k3="1"/>
<feColorMatrix type="matrix" values="0 0 0 0 0.0392157 0 0 0 0 0.0509804 0 0 0 0 0.0705882 0 0 0 0.1 0"/>
<feBlend mode="normal" in2="shape" result="effect4_innerShadow_8_1191"/>
</filter>
<filter id="filter1_dd_8_1191" x="inf" y="inf" width="-inf" height="-inf" filterUnits="userSpaceOnUse" color-interpolation-filters="sRGB">
<feFlood flood-opacity="0" result="BackgroundImageFix"/>
<feColorMatrix in="SourceAlpha" type="matrix" values="0 0 0 0 0 0 0 0 0 0 0 0 0 0 0 0 0 0 127 0" result="hardAlpha"/>
<feOffset dy="1"/>
<feGaussianBlur stdDeviation="1"/>
<feColorMatrix type="matrix" values="0 0 0 0 0.0392157 0 0 0 0 0.0509804 0 0 0 0 0.0705882 0 0 0 0.06 0"/>
<feBlend mode="normal" in2="BackgroundImageFix" result="effect1_dropShadow_8_1191"/>
<feColorMatrix in="SourceAlpha" type="matrix" values="0 0 0 0 0 0 0 0 0 0 0 0 0 0 0 0 0 0 127 0" result="hardAlpha"/>
<feOffset dy="1"/>
<feGaussianBlur stdDeviation="1.5"/>
<feColorMatrix type="matrix" values="0 0 0 0 0.0392157 0 0 0 0 0.0509804 0 0 0 0 0.0705882 0 0 0 0.1 0"/>
<feBlend mode="normal" in2="effect1_dropShadow_8_1191" result="effect2_dropShadow_8_1191"/>
<feBlend mode="normal" in="SourceGraphic" in2="effect2_dropShadow_8_1191" result="shape"/>
</filter>
<linearGradient id="paint0_linear_8_1191" x1="12" y1="24" x2="20" y2="8" gradientUnits="userSpaceOnUse">
<stop stop-color="#155EEF"/>
<stop offset="1" stop-color="#2970FF"/>
</linearGradient>
<radialGradient id="paint1_radial_8_1191" cx="0" cy="0" r="1" gradientUnits="userSpaceOnUse" gradientTransform="translate(16 8) rotate(90) scale(12)">
<stop stop-color="white" stop-opacity="0"/>
<stop offset="0.5" stop-color="white" stop-opacity="0"/>
<stop offset="0.99" stop-color="white"/>
<stop offset="1" stop-color="white" stop-opacity="0"/>
</radialGradient>
<radialGradient id="paint2_radial_8_1191" cx="0" cy="0" r="1" gradientUnits="userSpaceOnUse" gradientTransform="translate(16 16) rotate(90) scale(8)">
<stop offset="0.746599" stop-color="white" stop-opacity="0"/>
<stop offset="1" stop-color="white"/>
</radialGradient>
<radialGradient id="paint3_radial_8_1191" cx="0" cy="0" r="1" gradientUnits="userSpaceOnUse" gradientTransform="translate(16 12.6) rotate(90) scale(7)">
<stop stop-color="white"/>
<stop offset="1" stop-color="white" stop-opacity="0"/>
</radialGradient>
<linearGradient id="paint4_linear_8_1191" x1="16" y1="9.59998" x2="16" y2="12.8" gradientUnits="userSpaceOnUse">
<stop stop-color="white"/>
<stop offset="1" stop-color="white" stop-opacity="0.1"/>
</linearGradient>
<linearGradient id="paint5_linear_8_1191" x1="32" y1="32" x2="32" y2="0" gradientUnits="userSpaceOnUse">
<stop stop-color="#00C6FB"/>
<stop offset="1" stop-color="#005BEA"/>
</linearGradient>
<clipPath id="clip0_8_1191">
<path d="M0 12.8C0 8.31958 0 6.07937 0.871948 4.36808C1.63893 2.86278 2.86278 1.63893 4.36808 0.871948C6.07937 0 8.31958 0 12.8 0H19.2C23.6804 0 25.9206 0 27.6319 0.871948C29.1372 1.63893 30.3611 2.86278 31.1281 4.36808C32 6.07937 32 8.31958 32 12.8V19.2C32 23.6804 32 25.9206 31.1281 27.6319C30.3611 29.1372 29.1372 30.3611 27.6319 31.1281C25.9206 32 23.6804 32 19.2 32H12.8C8.31958 32 6.07937 32 4.36808 31.1281C2.86278 30.3611 1.63893 29.1372 0.871948 27.6319C0 25.9206 0 23.6804 0 19.2V12.8Z" fill="white"/>
</clipPath>
<clipPath id="clip1_8_1191">
<rect width="32" height="32" fill="white"/>
</clipPath>
</defs>
</svg>
