<svg width="24" height="24" viewBox="0 0 24 24" fill="none" xmlns="http://www.w3.org/2000/svg">
  <path d="M11.944 17.97L4.58 13.62L11.944 24L19.31 13.62L11.944 17.97Z" fill="#627EEA"/>
  <path d="M11.944 0L11.6226 1.0845L11.6226 16.3118L11.944 16.6335L19.3091 13.6203L11.944 0Z" fill="#627EEA" fill-opacity="0.602"/>
  <path d="M11.944 0L4.58 13.6203L11.944 16.6335V8.9276V0Z" fill="#627EEA"/>
  <path d="M11.944 18.3695L11.7272 18.6417L11.7272 23.5834L11.944 24L19.3109 14.0229L11.944 18.3695Z" fill="#627EEA" fill-opacity="0.602"/>
  <path d="M11.944 24V18.3695L4.58 14.0229L11.944 24Z" fill="#627EEA"/>
  <path d="M11.944 16.6335L19.309 13.6203L11.944 8.9277V16.6335Z" fill="#627EEA" fill-opacity="0.2"/>
  <path d="M4.58 13.6203L11.944 16.6335V8.9277L4.58 13.6203Z" fill="#627EEA" fill-opacity="0.602"/>
</svg> 