<svg width="17" height="16" viewBox="0 0 17 16" fill="none" xmlns="http://www.w3.org/2000/svg">
<path d="M8.5 8.66668C8.86819 8.66668 9.16667 8.3682 9.16667 8.00001C9.16667 7.63182 8.86819 7.33334 8.5 7.33334C8.13181 7.33334 7.83334 7.63182 7.83334 8.00001C7.83334 8.3682 8.13181 8.66668 8.5 8.66668Z" stroke="#737373" stroke-width="1.33" stroke-linecap="round" stroke-linejoin="round"/>
<path d="M13.1667 8.66668C13.5349 8.66668 13.8333 8.3682 13.8333 8.00001C13.8333 7.63182 13.5349 7.33334 13.1667 7.33334C12.7985 7.33334 12.5 7.63182 12.5 8.00001C12.5 8.3682 12.7985 8.66668 13.1667 8.66668Z" stroke="#737373" stroke-width="1.33" stroke-linecap="round" stroke-linejoin="round"/>
<path d="M3.83334 8.66668C4.20153 8.66668 4.50001 8.3682 4.50001 8.00001C4.50001 7.63182 4.20153 7.33334 3.83334 7.33334C3.46515 7.33334 3.16667 7.63182 3.16667 8.00001C3.16667 8.3682 3.46515 8.66668 3.83334 8.66668Z" stroke="#737373" stroke-width="1.33" stroke-linecap="round" stroke-linejoin="round"/>
</svg>
