<svg width="456" height="191" viewBox="0 0 456 191" fill="none" xmlns="http://www.w3.org/2000/svg">
<path d="M23.3423 170.606C23.3423 170.606 50.6423 167.82 68.8423 149.706C87.0423 131.593 96.1423 80.0395 114.342 80.0395C132.542 80.0395 141.642 157.306 159.842 157.306C178.042 157.306 187.142 150.086 205.342 147.173C223.542 144.26 232.642 144.26 250.842 142.74C269.042 141.22 278.142 142.74 296.342 139.573C314.542 136.406 323.642 42.6729 341.842 35.7062C360.042 28.7395 369.142 31.1462 387.342 28.7395C405.542 26.3329 432.842 23.6729 432.842 23.6729" stroke="#22C55E" stroke-width="2" stroke-dasharray="4 4"/>
<path d="M23.3423 162.373C23.3423 162.373 50.6423 150.213 68.8423 131.973C87.0423 113.733 96.1423 71.1731 114.342 71.1731C132.542 71.1731 141.642 114.24 159.842 126.906C178.042 139.573 187.142 139.573 205.342 139.573C223.542 139.573 232.642 136.026 250.842 134.506C269.042 132.986 278.142 134.506 296.342 131.973C314.542 129.44 323.642 33.1731 341.842 25.5731C360.042 17.9731 369.142 17.9731 387.342 17.9731C405.542 17.9731 432.842 66.1065 432.842 66.1065" stroke="#EF4444" stroke-width="2"/>
<path d="M22.5923 174.24C21.5316 174.24 20.5143 173.818 19.7642 173.069C19.0141 172.319 18.5926 171.301 18.5923 170.241C18.592 169.18 19.0131 168.163 19.7628 167.412C20.5125 166.662 21.5296 166.24 22.5903 166.24C23.651 166.239 24.6685 166.66 25.4189 167.41C26.1694 168.159 26.5915 169.176 26.5923 170.237C26.5931 171.297 26.1726 172.315 25.4232 173.066C24.6738 173.816 23.657 174.239 22.5963 174.24H22.5923Z" fill="#22C55E"/>
<path d="M68.5923 153.24C67.5316 153.24 66.5143 152.818 65.7642 152.069C65.0141 151.319 64.5926 150.301 64.5923 149.241C64.592 148.18 65.0131 147.163 65.7628 146.412C66.5125 145.662 67.5296 145.24 68.5903 145.24C69.651 145.239 70.6685 145.66 71.4189 146.41C72.1694 147.159 72.5915 148.176 72.5923 149.237C72.5931 150.297 72.1726 151.315 71.4232 152.066C70.6738 152.816 69.657 153.239 68.5963 153.24H68.5923Z" fill="#22C55E"/>
<path d="M113.592 84.2397C112.532 84.2397 111.514 83.8185 110.764 83.0685C110.014 82.3186 109.593 81.3014 109.592 80.2407C109.592 79.1801 110.013 78.1627 110.763 77.4124C111.513 76.6621 112.53 76.2403 113.59 76.2397C114.651 76.2392 115.668 76.66 116.419 77.4096C117.169 78.1591 117.591 79.1761 117.592 80.2367C117.593 81.2974 117.173 82.315 116.423 83.0657C115.674 83.8164 114.657 84.2387 113.596 84.2397H113.592Z" fill="#22C55E"/>
<path d="M159.592 161.24C158.532 161.24 157.514 160.818 156.764 160.069C156.014 159.319 155.593 158.301 155.592 157.241C155.592 156.18 156.013 155.163 156.763 154.412C157.513 153.662 158.53 153.24 159.59 153.24C160.651 153.239 161.668 153.66 162.419 154.41C163.169 155.159 163.591 156.176 163.592 157.237C163.593 158.297 163.173 159.315 162.423 160.066C161.674 160.816 160.657 161.239 159.596 161.24H159.592Z" fill="#22C55E"/>
<path d="M204.592 151.24C203.532 151.24 202.514 150.818 201.764 150.069C201.014 149.319 200.593 148.301 200.592 147.241C200.592 146.18 201.013 145.163 201.763 144.412C202.513 143.662 203.53 143.24 204.59 143.24C205.651 143.239 206.668 143.66 207.419 144.41C208.169 145.159 208.591 146.176 208.592 147.237C208.593 148.297 208.173 149.315 207.423 150.066C206.674 150.816 205.657 151.239 204.596 151.24H204.592Z" fill="#22C55E"/>
<path d="M250.592 147.24C249.532 147.24 248.514 146.818 247.764 146.069C247.014 145.319 246.593 144.301 246.592 143.241C246.592 142.18 247.013 141.163 247.763 140.412C248.513 139.662 249.53 139.24 250.59 139.24C251.651 139.239 252.668 139.66 253.419 140.41C254.169 141.159 254.591 142.176 254.592 143.237C254.593 144.297 254.173 145.315 253.423 146.066C252.674 146.816 251.657 147.239 250.596 147.24H250.592Z" fill="#22C55E"/>
<path d="M295.592 143.24C294.532 143.24 293.514 142.818 292.764 142.069C292.014 141.319 291.593 140.301 291.592 139.241C291.592 138.18 292.013 137.163 292.763 136.412C293.513 135.662 294.53 135.24 295.59 135.24C296.651 135.239 297.668 135.66 298.419 136.41C299.169 137.159 299.591 138.176 299.592 139.237C299.593 140.297 299.173 141.315 298.423 142.066C297.674 142.816 296.657 143.239 295.596 143.24H295.592Z" fill="#22C55E"/>
<path d="M341.592 39.2397C340.532 39.2397 339.514 38.8185 338.764 38.0685C338.014 37.3186 337.593 36.3014 337.592 35.2407C337.592 34.1801 338.013 33.1627 338.763 32.4124C339.513 31.6621 340.53 31.2403 341.59 31.2397C342.651 31.2392 343.668 31.66 344.419 32.4096C345.169 33.1591 345.591 34.1761 345.592 35.2367C345.593 36.2974 345.173 37.315 344.423 38.0657C343.674 38.8164 342.657 39.2387 341.596 39.2397L341.592 39.2397Z" fill="#22C55E"/>
<path d="M386.592 33.2397C385.532 33.2397 384.514 32.8185 383.764 32.0685C383.014 31.3186 382.593 30.3014 382.592 29.2407C382.592 28.1801 383.013 27.1627 383.763 26.4124C384.513 25.6621 385.53 25.2403 386.59 25.2397C387.651 25.2392 388.668 25.66 389.419 26.4096C390.169 27.1591 390.591 28.1761 390.592 29.2367C390.593 30.2974 390.173 31.315 389.423 32.0657C388.674 32.8164 387.657 33.2387 386.596 33.2397L386.592 33.2397Z" fill="#22C55E"/>
<path d="M432.592 27.2397C431.532 27.2397 430.514 26.8185 429.764 26.0685C429.014 25.3186 428.593 24.3014 428.592 23.2407C428.592 22.1801 429.013 21.1627 429.763 20.4124C430.513 19.6621 431.53 19.2403 432.59 19.2397C433.651 19.2392 434.668 19.66 435.419 20.4096C436.169 21.1591 436.591 22.1761 436.592 23.2367C436.593 24.2974 436.173 25.315 435.423 26.0657C434.674 26.8164 433.657 27.2387 432.596 27.2397L432.592 27.2397Z" fill="#22C55E"/>
<path d="M22.5923 166.24C21.5316 166.24 20.5143 165.818 19.7642 165.069C19.0141 164.319 18.5926 163.301 18.5923 162.241C18.592 161.18 19.0131 160.163 19.7628 159.412C20.5125 158.662 21.5296 158.24 22.5903 158.24C23.651 158.239 24.6685 158.66 25.4189 159.41C26.1694 160.159 26.5915 161.176 26.5923 162.237C26.5931 163.297 26.1726 164.315 25.4232 165.066C24.6738 165.816 23.657 166.239 22.5963 166.24H22.5923Z" fill="#EF4444"/>
<path d="M68.5923 136.24C67.5316 136.24 66.5143 135.818 65.7642 135.069C65.0141 134.319 64.5926 133.301 64.5923 132.241C64.592 131.18 65.0131 130.163 65.7628 129.412C66.5125 128.662 67.5296 128.24 68.5903 128.24C69.651 128.239 70.6685 128.66 71.4189 129.41C72.1694 130.159 72.5915 131.176 72.5923 132.237C72.5931 133.297 72.1726 134.315 71.4232 135.066C70.6738 135.816 69.657 136.239 68.5963 136.24H68.5923Z" fill="#EF4444"/>
<path d="M113.592 75.2397C112.532 75.2397 111.514 74.8185 110.764 74.0685C110.014 73.3186 109.593 72.3014 109.592 71.2407C109.592 70.1801 110.013 69.1627 110.763 68.4124C111.513 67.6621 112.53 67.2403 113.59 67.2397C114.651 67.2392 115.668 67.66 116.419 68.4096C117.169 69.1591 117.591 70.1761 117.592 71.2367C117.593 72.2974 117.173 73.315 116.423 74.0657C115.674 74.8164 114.657 75.2387 113.596 75.2397H113.592Z" fill="#EF4444"/>
<path d="M159.592 131.24C158.532 131.24 157.514 130.818 156.764 130.069C156.014 129.319 155.593 128.301 155.592 127.241C155.592 126.18 156.013 125.163 156.763 124.412C157.513 123.662 158.53 123.24 159.59 123.24C160.651 123.239 161.668 123.66 162.419 124.41C163.169 125.159 163.591 126.176 163.592 127.237C163.593 128.297 163.173 129.315 162.423 130.066C161.674 130.816 160.657 131.239 159.596 131.24H159.592Z" fill="#EF4444"/>
<path d="M204.592 143.24C203.532 143.24 202.514 142.818 201.764 142.069C201.014 141.319 200.593 140.301 200.592 139.241C200.592 138.18 201.013 137.163 201.763 136.412C202.513 135.662 203.53 135.24 204.59 135.24C205.651 135.239 206.668 135.66 207.419 136.41C208.169 137.159 208.591 138.176 208.592 139.237C208.593 140.297 208.173 141.315 207.423 142.066C206.674 142.816 205.657 143.239 204.596 143.24H204.592Z" fill="#EF4444"/>
<path d="M250.592 138.24C249.532 138.24 248.514 137.818 247.764 137.069C247.014 136.319 246.593 135.301 246.592 134.241C246.592 133.18 247.013 132.163 247.763 131.412C248.513 130.662 249.53 130.24 250.59 130.24C251.651 130.239 252.668 130.66 253.419 131.41C254.169 132.159 254.591 133.176 254.592 134.237C254.593 135.297 254.173 136.315 253.423 137.066C252.674 137.816 251.657 138.239 250.596 138.24H250.592Z" fill="#EF4444"/>
<path d="M295.592 136.24C294.532 136.24 293.514 135.818 292.764 135.069C292.014 134.319 291.593 133.301 291.592 132.241C291.592 131.18 292.013 130.163 292.763 129.412C293.513 128.662 294.53 128.24 295.59 128.24C296.651 128.239 297.668 128.66 298.419 129.41C299.169 130.159 299.591 131.176 299.592 132.237C299.593 133.297 299.173 134.315 298.423 135.066C297.674 135.816 296.657 136.239 295.596 136.24H295.592Z" fill="#EF4444"/>
<path d="M341.592 29.2397C340.532 29.2397 339.514 28.8185 338.764 28.0685C338.014 27.3186 337.593 26.3014 337.592 25.2407C337.592 24.1801 338.013 23.1627 338.763 22.4124C339.513 21.6621 340.53 21.2403 341.59 21.2397C342.651 21.2392 343.668 21.66 344.419 22.4096C345.169 23.1591 345.591 24.1761 345.592 25.2367C345.593 26.2974 345.173 27.315 344.423 28.0657C343.674 28.8164 342.657 29.2387 341.596 29.2397L341.592 29.2397Z" fill="#EF4444"/>
<path d="M386.592 22.2397C385.532 22.2397 384.514 21.8185 383.764 21.0685C383.014 20.3186 382.593 19.3014 382.592 18.2407C382.592 17.1801 383.013 16.1627 383.763 15.4124C384.513 14.6621 385.53 14.2403 386.59 14.2397C387.651 14.2392 388.668 14.66 389.419 15.4096C390.169 16.1591 390.591 17.1761 390.592 18.2367C390.593 19.2974 390.173 20.315 389.423 21.0657C388.674 21.8164 387.657 22.2387 386.596 22.2397L386.592 22.2397Z" fill="#EF4444"/>
<path d="M432.592 70.2397C431.532 70.2397 430.514 69.8185 429.764 69.0685C429.014 68.3186 428.593 67.3014 428.592 66.2407C428.592 65.1801 429.013 64.1627 429.763 63.4124C430.513 62.6621 431.53 62.2403 432.59 62.2397C433.651 62.2392 434.668 62.66 435.419 63.4096C436.169 64.1591 436.591 65.1761 436.592 66.2367C436.593 67.2974 436.173 68.315 435.423 69.0657C434.674 69.8164 433.657 70.2387 432.596 70.2397H432.592Z" fill="#EF4444"/>
</svg>
