<svg width="632" height="192" viewBox="0 0 632 192" fill="none" xmlns="http://www.w3.org/2000/svg">
<path d="M16.6313 161.128C16.6313 161.128 36.5892 159.291 49.8945 157.644C63.1998 155.998 69.8524 155.618 83.1577 152.894C96.4629 150.171 103.116 148.208 116.421 144.028C129.726 139.848 136.379 136.934 149.684 131.994C162.989 127.054 169.642 124.648 182.947 119.328C196.252 114.008 202.905 110.778 216.21 105.394C229.516 100.011 236.168 97.4145 249.473 92.4111C262.779 87.4078 269.431 85.1278 282.737 80.3778C296.042 75.6278 302.694 73.1578 316 68.6611C329.305 64.1645 335.958 61.9478 349.263 57.8945C362.568 53.8411 369.221 52.0678 382.526 48.3945C395.831 44.7211 402.484 42.1245 415.789 39.5278C429.094 36.9311 435.747 36.8678 449.052 35.4111C462.358 33.9545 469.01 34.1445 482.316 32.2445C495.621 30.3445 502.273 25.9111 515.579 25.9111C528.884 25.9111 535.537 32.8778 548.842 35.4111C562.147 37.9445 568.8 37.3745 582.105 38.5778C595.41 39.7811 615.368 41.4278 615.368 41.4278" stroke="#22C55E" stroke-width="2" stroke-dasharray="4 4"/>
<path d="M16.6313 125.978C16.6313 125.978 36.5892 125.471 49.8945 124.711C63.1998 123.951 69.8524 122.938 83.1577 122.178C96.4629 121.418 103.116 122.178 116.421 120.911C129.726 119.645 136.379 114.578 149.684 111.411C162.989 108.245 169.642 107.738 182.947 105.078C196.252 102.418 202.905 100.898 216.21 98.1112C229.516 95.3245 236.168 91.1445 249.473 91.1445C262.779 91.1445 269.431 109.511 282.737 109.511C296.042 109.511 302.694 84.1779 316 79.1112C329.305 74.0445 335.958 76.0712 349.263 74.0445C362.568 72.0179 369.221 71.0045 382.526 68.9779C395.831 66.9512 402.484 65.1779 415.789 63.9112C429.094 62.6445 435.747 62.6445 449.052 62.6445C462.358 62.6445 469.01 141.178 482.316 141.178C495.621 141.178 502.273 111.411 515.579 111.411C528.884 111.411 535.537 141.178 548.842 141.178C562.147 141.178 568.8 141.178 582.105 141.178C595.41 141.178 615.368 70.8779 615.368 70.8779" stroke="#EF4444" stroke-width="2"/>
<path d="M16 165.578C14.9393 165.578 13.922 165.156 13.1719 164.406C12.4218 163.656 12.0003 162.639 12 161.579C11.9997 160.518 12.4208 159.501 13.1705 158.75C13.9203 158 14.9373 157.578 15.998 157.578C17.0587 157.577 18.0762 157.998 18.8267 158.747C19.5771 159.497 19.9992 160.514 20 161.575C20.0008 162.635 19.5803 163.653 18.8309 164.404C18.0815 165.154 17.0647 165.577 16.004 165.578H16Z" fill="#22C55E"/>
<path d="M49 161.578C47.9393 161.578 46.922 161.156 46.1719 160.406C45.4218 159.656 45.0003 158.639 45 157.579C44.9997 156.518 45.4208 155.501 46.1705 154.75C46.9203 154 47.9373 153.578 48.998 153.578C50.0587 153.577 51.0762 153.998 51.8267 154.747C52.5772 155.497 52.9992 156.514 53 157.575C53.0008 158.635 52.5803 159.653 51.8309 160.404C51.0815 161.154 50.0647 161.577 49.004 161.578H49Z" fill="#22C55E"/>
<path d="M83 156.578C81.9393 156.578 80.922 156.156 80.1719 155.406C79.4218 154.656 79.0003 153.639 79 152.579C78.9997 151.518 79.4208 150.501 80.1705 149.75C80.9203 149 81.9373 148.578 82.998 148.578C84.0587 148.577 85.0762 148.998 85.8267 149.747C86.5772 150.497 86.9992 151.514 87 152.575C87.0008 153.635 86.5803 154.653 85.8309 155.404C85.0815 156.154 84.0647 156.577 83.004 156.578H83Z" fill="#22C55E"/>
<path d="M116 147.578C114.939 147.578 113.922 147.156 113.172 146.406C112.422 145.656 112 144.639 112 143.579C112 142.518 112.421 141.501 113.171 140.75C113.92 140 114.937 139.578 115.998 139.578C117.059 139.577 118.076 139.998 118.827 140.747C119.577 141.497 119.999 142.514 120 143.575C120.001 144.635 119.58 145.653 118.831 146.404C118.082 147.154 117.065 147.577 116.004 147.578H116Z" fill="#22C55E"/>
<path d="M149 135.578C147.939 135.578 146.922 135.156 146.172 134.406C145.422 133.656 145 132.639 145 131.579C145 130.518 145.421 129.501 146.171 128.75C146.92 128 147.937 127.578 148.998 127.578C150.059 127.577 151.076 127.998 151.827 128.747C152.577 129.497 152.999 130.514 153 131.575C153.001 132.635 152.58 133.653 151.831 134.404C151.082 135.154 150.065 135.577 149.004 135.578H149Z" fill="#22C55E"/>
<path d="M182 123.578C180.939 123.578 179.922 123.156 179.172 122.406C178.422 121.656 178 120.639 178 119.579C178 118.518 178.421 117.501 179.171 116.75C179.92 116 180.937 115.578 181.998 115.578C183.059 115.577 184.076 115.998 184.827 116.747C185.577 117.497 185.999 118.514 186 119.575C186.001 120.635 185.58 121.653 184.831 122.404C184.082 123.154 183.065 123.577 182.004 123.578H182Z" fill="#22C55E"/>
<path d="M216 109.578C214.939 109.578 213.922 109.156 213.172 108.406C212.422 107.656 212 106.639 212 105.579C212 104.518 212.421 103.501 213.171 102.75C213.92 102 214.937 101.578 215.998 101.578C217.059 101.577 218.076 101.998 218.827 102.747C219.577 103.497 219.999 104.514 220 105.575C220.001 106.635 219.58 107.653 218.831 108.404C218.082 109.154 217.065 109.577 216.004 109.578H216Z" fill="#22C55E"/>
<path d="M249 96.5776C247.939 96.5776 246.922 96.1563 246.172 95.4064C245.422 94.6565 245 93.6393 245 92.5786C245 91.5179 245.421 90.5006 246.171 89.7503C246.92 89 247.937 88.5782 248.998 88.5776C250.059 88.5771 251.076 88.9979 251.827 89.7474C252.577 90.497 252.999 91.5139 253 92.5746C253.001 93.6353 252.58 94.6529 251.831 95.4036C251.082 96.1543 250.065 96.5766 249.004 96.5776H249Z" fill="#22C55E"/>
<path d="M282 84.5776C280.939 84.5776 279.922 84.1563 279.172 83.4064C278.422 82.6565 278 81.6393 278 80.5786C278 79.5179 278.421 78.5006 279.171 77.7503C279.92 77 280.937 76.5782 281.998 76.5776C283.059 76.5771 284.076 76.9979 284.827 77.7474C285.577 78.497 285.999 79.5139 286 80.5746C286.001 81.6353 285.58 82.6529 284.831 83.4036C284.082 84.1543 283.065 84.5766 282.004 84.5776H282Z" fill="#22C55E"/>
<path d="M316 72.5776C314.939 72.5776 313.922 72.1563 313.172 71.4064C312.422 70.6565 312 69.6393 312 68.5786C312 67.5179 312.421 66.5006 313.171 65.7503C313.92 65 314.937 64.5782 315.998 64.5776C317.059 64.5771 318.076 64.9979 318.827 65.7474C319.577 66.497 319.999 67.5139 320 68.5746C320.001 69.6353 319.58 70.6529 318.831 71.4036C318.082 72.1543 317.065 72.5766 316.004 72.5776H316Z" fill="#22C55E"/>
<path d="M349 61.5776C347.939 61.5776 346.922 61.1563 346.172 60.4064C345.422 59.6565 345 58.6393 345 57.5786C345 56.5179 345.421 55.5006 346.171 54.7503C346.92 54 347.937 53.5782 348.998 53.5776C350.059 53.5771 351.076 53.9979 351.827 54.7474C352.577 55.497 352.999 56.5139 353 57.5746C353.001 58.6353 352.58 59.6529 351.831 60.4036C351.082 61.1543 350.065 61.5766 349.004 61.5776L349 61.5776Z" fill="#22C55E"/>
<path d="M382 52.5776C380.939 52.5776 379.922 52.1563 379.172 51.4064C378.422 50.6565 378 49.6393 378 48.5786C378 47.5179 378.421 46.5006 379.171 45.7503C379.92 45 380.937 44.5782 381.998 44.5776C383.059 44.5771 384.076 44.9979 384.827 45.7474C385.577 46.497 385.999 47.5139 386 48.5746C386.001 49.6353 385.58 50.6529 384.831 51.4036C384.082 52.1543 383.065 52.5766 382.004 52.5776L382 52.5776Z" fill="#22C55E"/>
<path d="M415 43.5776C413.939 43.5776 412.922 43.1563 412.172 42.4064C411.422 41.6565 411 40.6393 411 39.5786C411 38.5179 411.421 37.5006 412.171 36.7503C412.92 36 413.937 35.5782 414.998 35.5776C416.059 35.5771 417.076 35.9979 417.827 36.7474C418.577 37.497 418.999 38.5139 419 39.5746C419.001 40.6353 418.58 41.6529 417.831 42.4036C417.082 43.1543 416.065 43.5766 415.004 43.5776L415 43.5776Z" fill="#22C55E"/>
<path d="M449 39.5776C447.939 39.5776 446.922 39.1563 446.172 38.4064C445.422 37.6565 445 36.6393 445 35.5786C445 34.5179 445.421 33.5006 446.171 32.7503C446.92 32 447.937 31.5782 448.998 31.5776C450.059 31.5771 451.076 31.9979 451.827 32.7474C452.577 33.497 452.999 34.5139 453 35.5746C453.001 36.6353 452.58 37.6529 451.831 38.4036C451.082 39.1543 450.065 39.5766 449.004 39.5776L449 39.5776Z" fill="#22C55E"/>
<path d="M482 36.5776C480.939 36.5776 479.922 36.1563 479.172 35.4064C478.422 34.6565 478 33.6393 478 32.5786C478 31.5179 478.421 30.5006 479.171 29.7503C479.92 29 480.937 28.5782 481.998 28.5776C483.059 28.5771 484.076 28.9979 484.827 29.7474C485.577 30.497 485.999 31.5139 486 32.5746C486.001 33.6353 485.58 34.6529 484.831 35.4036C484.082 36.1543 483.065 36.5766 482.004 36.5776L482 36.5776Z" fill="#22C55E"/>
<path d="M515 29.5776C513.939 29.5776 512.922 29.1563 512.172 28.4064C511.422 27.6565 511 26.6393 511 25.5786C511 24.5179 511.421 23.5006 512.171 22.7503C512.92 22 513.937 21.5782 514.998 21.5776C516.059 21.5771 517.076 21.9979 517.827 22.7474C518.577 23.497 518.999 24.5139 519 25.5746C519.001 26.6353 518.58 27.6529 517.831 28.4036C517.082 29.1543 516.065 29.5766 515.004 29.5776L515 29.5776Z" fill="#22C55E"/>
<path d="M548 39.5776C546.939 39.5776 545.922 39.1563 545.172 38.4064C544.422 37.6565 544 36.6393 544 35.5786C544 34.5179 544.421 33.5006 545.171 32.7503C545.92 32 546.937 31.5782 547.998 31.5776C549.059 31.5771 550.076 31.9979 550.827 32.7474C551.577 33.497 551.999 34.5139 552 35.5746C552.001 36.6353 551.58 37.6529 550.831 38.4036C550.082 39.1543 549.065 39.5766 548.004 39.5776L548 39.5776Z" fill="#22C55E"/>
<path d="M582 42.5776C580.939 42.5776 579.922 42.1563 579.172 41.4064C578.422 40.6565 578 39.6393 578 38.5786C578 37.5179 578.421 36.5006 579.171 35.7503C579.92 35 580.937 34.5782 581.998 34.5776C583.059 34.5771 584.076 34.9979 584.827 35.7474C585.577 36.497 585.999 37.5139 586 38.5746C586.001 39.6353 585.58 40.6529 584.831 41.4036C584.082 42.1543 583.065 42.5766 582.004 42.5776L582 42.5776Z" fill="#22C55E"/>
<path d="M615 45.5776C613.939 45.5776 612.922 45.1563 612.172 44.4064C611.422 43.6565 611 42.6393 611 41.5786C611 40.5179 611.421 39.5006 612.171 38.7503C612.92 38 613.937 37.5782 614.998 37.5776C616.059 37.5771 617.076 37.9979 617.827 38.7474C618.577 39.497 618.999 40.5139 619 41.5746C619.001 42.6353 618.58 43.6529 617.831 44.4036C617.082 45.1543 616.065 45.5766 615.004 45.5776L615 45.5776Z" fill="#22C55E"/>
<path d="M16 129.578C14.9393 129.578 13.922 129.156 13.1719 128.406C12.4218 127.656 12.0003 126.639 12 125.579C11.9997 124.518 12.4208 123.501 13.1705 122.75C13.9203 122 14.9373 121.578 15.998 121.578C17.0587 121.577 18.0762 121.998 18.8267 122.747C19.5771 123.497 19.9992 124.514 20 125.575C20.0008 126.635 19.5803 127.653 18.8309 128.404C18.0815 129.154 17.0647 129.577 16.004 129.578H16Z" fill="#EF4444"/>
<path d="M49 128.578C47.9393 128.578 46.922 128.156 46.1719 127.406C45.4218 126.656 45.0003 125.639 45 124.579C44.9997 123.518 45.4208 122.501 46.1705 121.75C46.9203 121 47.9373 120.578 48.998 120.578C50.0587 120.577 51.0762 120.998 51.8267 121.747C52.5772 122.497 52.9992 123.514 53 124.575C53.0008 125.635 52.5803 126.653 51.8309 127.404C51.0815 128.154 50.0647 128.577 49.004 128.578H49Z" fill="#EF4444"/>
<path d="M83 126.578C81.9393 126.578 80.922 126.156 80.1719 125.406C79.4218 124.656 79.0003 123.639 79 122.579C78.9997 121.518 79.4208 120.501 80.1705 119.75C80.9203 119 81.9373 118.578 82.998 118.578C84.0587 118.577 85.0762 118.998 85.8267 119.747C86.5772 120.497 86.9992 121.514 87 122.575C87.0008 123.635 86.5803 124.653 85.8309 125.404C85.0815 126.154 84.0647 126.577 83.004 126.578H83Z" fill="#EF4444"/>
<path d="M116 124.578C114.939 124.578 113.922 124.156 113.172 123.406C112.422 122.656 112 121.639 112 120.579C112 119.518 112.421 118.501 113.171 117.75C113.92 117 114.937 116.578 115.998 116.578C117.059 116.577 118.076 116.998 118.827 117.747C119.577 118.497 119.999 119.514 120 120.575C120.001 121.635 119.58 122.653 118.831 123.404C118.082 124.154 117.065 124.577 116.004 124.578H116Z" fill="#EF4444"/>
<path d="M149 115.578C147.939 115.578 146.922 115.156 146.172 114.406C145.422 113.656 145 112.639 145 111.579C145 110.518 145.421 109.501 146.171 108.75C146.92 108 147.937 107.578 148.998 107.578C150.059 107.577 151.076 107.998 151.827 108.747C152.577 109.497 152.999 110.514 153 111.575C153.001 112.635 152.58 113.653 151.831 114.404C151.082 115.154 150.065 115.577 149.004 115.578H149Z" fill="#EF4444"/>
<path d="M182 109.578C180.939 109.578 179.922 109.156 179.172 108.406C178.422 107.656 178 106.639 178 105.579C178 104.518 178.421 103.501 179.171 102.75C179.92 102 180.937 101.578 181.998 101.578C183.059 101.577 184.076 101.998 184.827 102.747C185.577 103.497 185.999 104.514 186 105.575C186.001 106.635 185.58 107.653 184.831 108.404C184.082 109.154 183.065 109.577 182.004 109.578H182Z" fill="#EF4444"/>
<path d="M216 102.578C214.939 102.578 213.922 102.156 213.172 101.406C212.422 100.656 212 99.6393 212 98.5786C212 97.5179 212.421 96.5006 213.171 95.7503C213.92 95 214.937 94.5782 215.998 94.5776C217.059 94.5771 218.076 94.9979 218.827 95.7474C219.577 96.497 219.999 97.5139 220 98.5746C220.001 99.6353 219.58 100.653 218.831 101.404C218.082 102.154 217.065 102.577 216.004 102.578H216Z" fill="#EF4444"/>
<path d="M249 95.5776C247.939 95.5776 246.922 95.1563 246.172 94.4064C245.422 93.6565 245 92.6393 245 91.5786C245 90.5179 245.421 89.5006 246.171 88.7503C246.92 88 247.937 87.5782 248.998 87.5776C250.059 87.5771 251.076 87.9979 251.827 88.7474C252.577 89.497 252.999 90.5139 253 91.5746C253.001 92.6353 252.58 93.6529 251.831 94.4036C251.082 95.1543 250.065 95.5766 249.004 95.5776H249Z" fill="#EF4444"/>
<path d="M282 113.578C280.939 113.578 279.922 113.156 279.172 112.406C278.422 111.656 278 110.639 278 109.579C278 108.518 278.421 107.501 279.171 106.75C279.92 106 280.937 105.578 281.998 105.578C283.059 105.577 284.076 105.998 284.827 106.747C285.577 107.497 285.999 108.514 286 109.575C286.001 110.635 285.58 111.653 284.831 112.404C284.082 113.154 283.065 113.577 282.004 113.578H282Z" fill="#EF4444"/>
<path d="M316 83.5776C314.939 83.5776 313.922 83.1563 313.172 82.4064C312.422 81.6565 312 80.6393 312 79.5786C312 78.5179 312.421 77.5006 313.171 76.7503C313.92 76 314.937 75.5782 315.998 75.5776C317.059 75.5771 318.076 75.9979 318.827 76.7474C319.577 77.497 319.999 78.5139 320 79.5746C320.001 80.6353 319.58 81.6529 318.831 82.4036C318.082 83.1543 317.065 83.5766 316.004 83.5776H316Z" fill="#EF4444"/>
<path d="M349 77.5776C347.939 77.5776 346.922 77.1563 346.172 76.4064C345.422 75.6565 345 74.6393 345 73.5786C345 72.5179 345.421 71.5006 346.171 70.7503C346.92 70 347.937 69.5782 348.998 69.5776C350.059 69.5771 351.076 69.9979 351.827 70.7474C352.577 71.497 352.999 72.5139 353 73.5746C353.001 74.6353 352.58 75.6529 351.831 76.4036C351.082 77.1543 350.065 77.5766 349.004 77.5776H349Z" fill="#EF4444"/>
<path d="M382 72.5776C380.939 72.5776 379.922 72.1563 379.172 71.4064C378.422 70.6565 378 69.6393 378 68.5786C378 67.5179 378.421 66.5006 379.171 65.7503C379.92 65 380.937 64.5782 381.998 64.5776C383.059 64.5771 384.076 64.9979 384.827 65.7474C385.577 66.497 385.999 67.5139 386 68.5746C386.001 69.6353 385.58 70.6529 384.831 71.4036C384.082 72.1543 383.065 72.5766 382.004 72.5776H382Z" fill="#EF4444"/>
<path d="M415 67.5776C413.939 67.5776 412.922 67.1563 412.172 66.4064C411.422 65.6565 411 64.6393 411 63.5786C411 62.5179 411.421 61.5006 412.171 60.7503C412.92 60 413.937 59.5782 414.998 59.5776C416.059 59.5771 417.076 59.9979 417.827 60.7474C418.577 61.497 418.999 62.5139 419 63.5746C419.001 64.6353 418.58 65.6529 417.831 66.4036C417.082 67.1543 416.065 67.5766 415.004 67.5776H415Z" fill="#EF4444"/>
<path d="M449 66.5776C447.939 66.5776 446.922 66.1563 446.172 65.4064C445.422 64.6565 445 63.6393 445 62.5786C445 61.5179 445.421 60.5006 446.171 59.7503C446.92 59 447.937 58.5782 448.998 58.5776C450.059 58.5771 451.076 58.9979 451.827 59.7474C452.577 60.497 452.999 61.5139 453 62.5746C453.001 63.6353 452.58 64.6529 451.831 65.4036C451.082 66.1543 450.065 66.5766 449.004 66.5776H449Z" fill="#EF4444"/>
<path d="M482 145.578C480.939 145.578 479.922 145.156 479.172 144.406C478.422 143.656 478 142.639 478 141.579C478 140.518 478.421 139.501 479.171 138.75C479.92 138 480.937 137.578 481.998 137.578C483.059 137.577 484.076 137.998 484.827 138.747C485.577 139.497 485.999 140.514 486 141.575C486.001 142.635 485.58 143.653 484.831 144.404C484.082 145.154 483.065 145.577 482.004 145.578H482Z" fill="#EF4444"/>
<path d="M515 115.578C513.939 115.578 512.922 115.156 512.172 114.406C511.422 113.656 511 112.639 511 111.579C511 110.518 511.421 109.501 512.171 108.75C512.92 108 513.937 107.578 514.998 107.578C516.059 107.577 517.076 107.998 517.827 108.747C518.577 109.497 518.999 110.514 519 111.575C519.001 112.635 518.58 113.653 517.831 114.404C517.082 115.154 516.065 115.577 515.004 115.578H515Z" fill="#EF4444"/>
<path d="M548 145.578C546.939 145.578 545.922 145.156 545.172 144.406C544.422 143.656 544 142.639 544 141.579C544 140.518 544.421 139.501 545.171 138.75C545.92 138 546.937 137.578 547.998 137.578C549.059 137.577 550.076 137.998 550.827 138.747C551.577 139.497 551.999 140.514 552 141.575C552.001 142.635 551.58 143.653 550.831 144.404C550.082 145.154 549.065 145.577 548.004 145.578H548Z" fill="#EF4444"/>
<path d="M582 145.578C580.939 145.578 579.922 145.156 579.172 144.406C578.422 143.656 578 142.639 578 141.579C578 140.518 578.421 139.501 579.171 138.75C579.92 138 580.937 137.578 581.998 137.578C583.059 137.577 584.076 137.998 584.827 138.747C585.577 139.497 585.999 140.514 586 141.575C586.001 142.635 585.58 143.653 584.831 144.404C584.082 145.154 583.065 145.577 582.004 145.578H582Z" fill="#EF4444"/>
<path d="M615 74.5776C613.939 74.5776 612.922 74.1563 612.172 73.4064C611.422 72.6565 611 71.6393 611 70.5786C611 69.5179 611.421 68.5006 612.171 67.7503C612.92 67 613.937 66.5782 614.998 66.5776C616.059 66.5771 617.076 66.9979 617.827 67.7474C618.577 68.497 618.999 69.5139 619 70.5746C619.001 71.6353 618.58 72.6529 617.831 73.4036C617.082 74.1543 616.065 74.5766 615.004 74.5776H615Z" fill="#EF4444"/>
</svg>
