<svg width="271" height="192" viewBox="0 0 271 192" fill="none" xmlns="http://www.w3.org/2000/svg">
<path d="M45.1665 53.6787C45.1665 53.6787 99.3665 54.7343 135.5 69.512C171.633 84.2898 225.833 127.568 225.833 127.568" stroke="#22C55E" stroke-width="2" stroke-dasharray="4 4"/>
<path d="M45.1665 159.234C45.1665 159.234 99.3665 169.79 135.5 169.79C171.633 169.79 225.833 95.9009 225.833 95.9009" stroke="#EF4444" stroke-width="2"/>
<path d="M45 57.9009C43.9393 57.9009 42.922 57.4796 42.1719 56.7297C41.4218 55.9797 41.0003 54.9626 41 53.9019C40.9997 52.8412 41.4208 51.8238 42.1705 51.0735C42.9203 50.3232 43.9373 49.9014 44.998 49.9009C46.0587 49.9003 47.0762 50.3211 47.8267 51.0707C48.5772 51.8202 48.9992 52.8372 49 53.8979C49.0008 54.9586 48.5803 55.9762 47.8309 56.7268C47.0815 57.4775 46.0647 57.8998 45.004 57.9009L45 57.9009Z" fill="#22C55E"/>
<path d="M135 73.9009C133.939 73.9009 132.922 73.4796 132.172 72.7297C131.422 71.9797 131 70.9626 131 69.9019C131 68.8412 131.421 67.8238 132.171 67.0735C132.92 66.3232 133.937 65.9014 134.998 65.9009C136.059 65.9003 137.076 66.3211 137.827 67.0707C138.577 67.8202 138.999 68.8372 139 69.8979C139.001 70.9586 138.58 71.9762 137.831 72.7268C137.082 73.4775 136.065 73.8998 135.004 73.9009H135Z" fill="#22C55E"/>
<path d="M225 131.901C223.939 131.901 222.922 131.48 222.172 130.73C221.422 129.98 221 128.963 221 127.902C221 126.841 221.421 125.824 222.171 125.074C222.92 124.323 223.937 123.901 224.998 123.901C226.059 123.9 227.076 124.321 227.827 125.071C228.577 125.82 228.999 126.837 229 127.898C229.001 128.959 228.58 129.976 227.831 130.727C227.082 131.478 226.065 131.9 225.004 131.901H225Z" fill="#22C55E"/>
<path d="M45 162.901C43.9393 162.901 42.922 162.48 42.1719 161.73C41.4218 160.98 41.0003 159.963 41 158.902C40.9997 157.841 41.4208 156.824 42.1705 156.074C42.9203 155.323 43.9373 154.901 44.998 154.901C46.0587 154.9 47.0762 155.321 47.8267 156.071C48.5772 156.82 48.9992 157.837 49 158.898C49.0008 159.959 48.5803 160.976 47.8309 161.727C47.0815 162.478 46.0647 162.9 45.004 162.901H45Z" fill="#EF4444"/>
<path d="M135 173.901C133.939 173.901 132.922 173.48 132.172 172.73C131.422 171.98 131 170.963 131 169.902C131 168.841 131.421 167.824 132.171 167.074C132.92 166.323 133.937 165.901 134.998 165.901C136.059 165.9 137.076 166.321 137.827 167.071C138.577 167.82 138.999 168.837 139 169.898C139.001 170.959 138.58 171.976 137.831 172.727C137.082 173.478 136.065 173.9 135.004 173.901H135Z" fill="#EF4444"/>
<path d="M225 99.9009C223.939 99.9009 222.922 99.4796 222.172 98.7297C221.422 97.9797 221 96.9626 221 95.9019C221 94.8412 221.421 93.8238 222.171 93.0735C222.92 92.3232 223.937 91.9014 224.998 91.9009C226.059 91.9003 227.076 92.3211 227.827 93.0707C228.577 93.8202 228.999 94.8372 229 95.8979C229.001 96.9586 228.58 97.9762 227.831 98.7268C227.082 99.4775 226.065 99.8998 225.004 99.9009H225Z" fill="#EF4444"/>
</svg>
