<svg width="632" height="191" viewBox="0 0 632 191" fill="none" xmlns="http://www.w3.org/2000/svg">
<path d="M16.6313 166.509C16.6313 166.509 36.5892 163.944 49.8945 161.997C63.1998 160.049 69.8524 159.511 83.1577 156.772C96.4629 154.033 103.116 152.465 116.421 148.301C129.726 144.137 136.379 140.986 149.684 135.951C162.989 130.916 169.642 128.05 182.947 123.126C196.252 118.202 202.905 116.856 216.21 111.33C229.516 105.804 236.168 101.83 249.473 95.4969C262.779 89.1636 269.431 84.4136 282.737 79.6636C296.042 74.9136 302.694 76.4969 316 71.7469C329.305 66.9969 335.958 60.6636 349.263 55.9136C362.568 51.1636 369.221 51.1636 382.526 47.9969C395.831 44.8302 402.484 40.0802 415.789 40.0802C429.094 40.0802 435.747 40.0802 449.052 40.0802C462.358 40.0802 469.01 71.7469 482.316 71.7469C495.621 71.7469 502.273 63.8302 515.579 63.8302C528.884 63.8302 535.537 67.7886 548.842 67.7886C562.147 67.7886 568.8 47.2052 582.105 40.0802C595.41 32.9552 615.368 32.1636 615.368 32.1636" stroke="#22C55E" stroke-width="2" stroke-dasharray="4 4"/>
<path d="M16.6313 134.289C16.6313 134.289 36.5892 133.054 49.8945 132.072C63.1998 131.091 69.8524 130.774 83.1577 129.381C96.4629 127.987 103.116 127.227 116.421 125.106C129.726 122.984 136.379 121.337 149.684 118.772C162.989 116.207 169.642 116.777 182.947 112.281C196.252 107.784 202.905 96.2889 216.21 96.2889C229.516 96.2889 236.168 98.3472 249.473 98.3472C262.779 98.3472 269.431 92.6789 282.737 90.2722C296.042 87.8656 302.694 88.6889 316 86.3139C329.305 83.9389 335.958 80.8039 349.263 78.3972C362.568 75.9906 369.221 75.8956 382.526 74.2806C395.831 72.6656 402.484 70.3222 415.789 70.3222C429.094 70.3222 435.747 70.3222 449.052 70.3222C462.358 70.3222 469.01 47.2056 482.316 47.2056C495.621 47.2056 502.273 47.2056 515.579 69.6889C528.884 92.1722 535.537 177.197 548.842 177.197C562.147 177.197 568.8 168.647 582.105 146.481C595.41 124.314 615.368 66.3639 615.368 66.3639" stroke="#EF4444" stroke-width="2"/>
<path d="M16 170.497C14.9393 170.497 13.922 170.076 13.1719 169.326C12.4218 168.576 12.0003 167.559 12 166.498C11.9997 165.437 12.4208 164.42 13.1705 163.67C13.9203 162.919 14.9373 162.498 15.998 162.497C17.0587 162.497 18.0762 162.917 18.8267 163.667C19.5771 164.416 19.9992 165.433 20 166.494C20.0008 167.555 19.5803 168.572 18.8309 169.323C18.0815 170.074 17.0647 170.496 16.004 170.497H16Z" fill="#22C55E"/>
<path d="M49 166.497C47.9393 166.497 46.922 166.076 46.1719 165.326C45.4218 164.576 45.0003 163.559 45 162.498C44.9997 161.437 45.4208 160.42 46.1705 159.67C46.9203 158.919 47.9373 158.498 48.998 158.497C50.0587 158.497 51.0762 158.917 51.8267 159.667C52.5772 160.416 52.9992 161.433 53 162.494C53.0008 163.555 52.5803 164.572 51.8309 165.323C51.0815 166.074 50.0647 166.496 49.004 166.497H49Z" fill="#22C55E"/>
<path d="M83 160.497C81.9393 160.497 80.922 160.076 80.1719 159.326C79.4218 158.576 79.0003 157.559 79 156.498C78.9997 155.437 79.4208 154.42 80.1705 153.67C80.9203 152.919 81.9373 152.498 82.998 152.497C84.0587 152.497 85.0762 152.917 85.8267 153.667C86.5772 154.416 86.9992 155.433 87 156.494C87.0008 157.555 86.5803 158.572 85.8309 159.323C85.0815 160.074 84.0647 160.496 83.004 160.497H83Z" fill="#22C55E"/>
<path d="M116 152.497C114.939 152.497 113.922 152.076 113.172 151.326C112.422 150.576 112 149.559 112 148.498C112 147.437 112.421 146.42 113.171 145.67C113.92 144.919 114.937 144.498 115.998 144.497C117.059 144.497 118.076 144.917 118.827 145.667C119.577 146.416 119.999 147.433 120 148.494C120.001 149.555 119.58 150.572 118.831 151.323C118.082 152.074 117.065 152.496 116.004 152.497H116Z" fill="#22C55E"/>
<path d="M149 139.497C147.939 139.497 146.922 139.076 146.172 138.326C145.422 137.576 145 136.559 145 135.498C145 134.437 145.421 133.42 146.171 132.67C146.92 131.919 147.937 131.498 148.998 131.497C150.059 131.497 151.076 131.917 151.827 132.667C152.577 133.416 152.999 134.433 153 135.494C153.001 136.555 152.58 137.572 151.831 138.323C151.082 139.074 150.065 139.496 149.004 139.497H149Z" fill="#22C55E"/>
<path d="M182 127.497C180.939 127.497 179.922 127.076 179.172 126.326C178.422 125.576 178 124.559 178 123.498C178 122.437 178.421 121.42 179.171 120.67C179.92 119.919 180.937 119.498 181.998 119.497C183.059 119.497 184.076 119.917 184.827 120.667C185.577 121.416 185.999 122.433 186 123.494C186.001 124.555 185.58 125.572 184.831 126.323C184.082 127.074 183.065 127.496 182.004 127.497H182Z" fill="#22C55E"/>
<path d="M216 115.497C214.939 115.497 213.922 115.076 213.172 114.326C212.422 113.576 212 112.559 212 111.498C212 110.437 212.421 109.42 213.171 108.67C213.92 107.919 214.937 107.498 215.998 107.497C217.059 107.497 218.076 107.917 218.827 108.667C219.577 109.416 219.999 110.433 220 111.494C220.001 112.555 219.58 113.572 218.831 114.323C218.082 115.074 217.065 115.496 216.004 115.497H216Z" fill="#22C55E"/>
<path d="M249 99.4971C247.939 99.4971 246.922 99.0758 246.172 98.3259C245.422 97.5759 245 96.5588 245 95.4981C245 94.4374 245.421 93.42 246.171 92.6697C246.92 91.9194 247.937 91.4976 248.998 91.4971C250.059 91.4965 251.076 91.9173 251.827 92.6669C252.577 93.4164 252.999 94.4334 253 95.4941C253.001 96.5548 252.58 97.5723 251.831 98.323C251.082 99.0737 250.065 99.496 249.004 99.4971H249Z" fill="#22C55E"/>
<path d="M282 83.4971C280.939 83.4971 279.922 83.0758 279.172 82.3259C278.422 81.5759 278 80.5588 278 79.4981C278 78.4374 278.421 77.42 279.171 76.6697C279.92 75.9194 280.937 75.4976 281.998 75.4971C283.059 75.4965 284.076 75.9173 284.827 76.6669C285.577 77.4164 285.999 78.4334 286 79.4941C286.001 80.5548 285.58 81.5723 284.831 82.323C284.082 83.0737 283.065 83.496 282.004 83.4971H282Z" fill="#22C55E"/>
<path d="M316 75.4971C314.939 75.4971 313.922 75.0758 313.172 74.3259C312.422 73.5759 312 72.5588 312 71.4981C312 70.4374 312.421 69.42 313.171 68.6697C313.92 67.9194 314.937 67.4976 315.998 67.4971C317.059 67.4965 318.076 67.9173 318.827 68.6669C319.577 69.4164 319.999 70.4334 320 71.4941C320.001 72.5548 319.58 73.5723 318.831 74.323C318.082 75.0737 317.065 75.496 316.004 75.4971H316Z" fill="#22C55E"/>
<path d="M349 59.4971C347.939 59.4971 346.922 59.0758 346.172 58.3259C345.422 57.5759 345 56.5588 345 55.4981C345 54.4374 345.421 53.42 346.171 52.6697C346.92 51.9194 347.937 51.4976 348.998 51.4971C350.059 51.4965 351.076 51.9173 351.827 52.6669C352.577 53.4164 352.999 54.4334 353 55.4941C353.001 56.5548 352.58 57.5723 351.831 58.323C351.082 59.0737 350.065 59.496 349.004 59.4971L349 59.4971Z" fill="#22C55E"/>
<path d="M382 52.4971C380.939 52.4971 379.922 52.0758 379.172 51.3259C378.422 50.5759 378 49.5588 378 48.4981C378 47.4374 378.421 46.42 379.171 45.6697C379.92 44.9194 380.937 44.4976 381.998 44.4971C383.059 44.4965 384.076 44.9173 384.827 45.6669C385.577 46.4164 385.999 47.4334 386 48.4941C386.001 49.5548 385.58 50.5723 384.831 51.323C384.082 52.0737 383.065 52.496 382.004 52.4971L382 52.4971Z" fill="#22C55E"/>
<path d="M415 44.4971C413.939 44.4971 412.922 44.0758 412.172 43.3259C411.422 42.5759 411 41.5588 411 40.4981C411 39.4374 411.421 38.42 412.171 37.6697C412.92 36.9194 413.937 36.4976 414.998 36.4971C416.059 36.4965 417.076 36.9173 417.827 37.6669C418.577 38.4164 418.999 39.4334 419 40.4941C419.001 41.5548 418.58 42.5723 417.831 43.323C417.082 44.0737 416.065 44.496 415.004 44.4971L415 44.4971Z" fill="#22C55E"/>
<path d="M449 44.4971C447.939 44.4971 446.922 44.0758 446.172 43.3259C445.422 42.5759 445 41.5588 445 40.4981C445 39.4374 445.421 38.42 446.171 37.6697C446.92 36.9194 447.937 36.4976 448.998 36.4971C450.059 36.4965 451.076 36.9173 451.827 37.6669C452.577 38.4164 452.999 39.4334 453 40.4941C453.001 41.5548 452.58 42.5723 451.831 43.323C451.082 44.0737 450.065 44.496 449.004 44.4971L449 44.4971Z" fill="#22C55E"/>
<path d="M482 75.4971C480.939 75.4971 479.922 75.0758 479.172 74.3259C478.422 73.5759 478 72.5588 478 71.4981C478 70.4374 478.421 69.42 479.171 68.6697C479.92 67.9194 480.937 67.4976 481.998 67.4971C483.059 67.4965 484.076 67.9173 484.827 68.6669C485.577 69.4164 485.999 70.4334 486 71.4941C486.001 72.5548 485.58 73.5723 484.831 74.323C484.082 75.0737 483.065 75.496 482.004 75.4971H482Z" fill="#22C55E"/>
<path d="M515 67.4971C513.939 67.4971 512.922 67.0758 512.172 66.3259C511.422 65.5759 511 64.5588 511 63.4981C511 62.4374 511.421 61.42 512.171 60.6697C512.92 59.9194 513.937 59.4976 514.998 59.4971C516.059 59.4965 517.076 59.9173 517.827 60.6669C518.577 61.4164 518.999 62.4334 519 63.4941C519.001 64.5548 518.58 65.5723 517.831 66.323C517.082 67.0737 516.065 67.496 515.004 67.4971H515Z" fill="#22C55E"/>
<path d="M548 71.4971C546.939 71.4971 545.922 71.0758 545.172 70.3259C544.422 69.5759 544 68.5588 544 67.4981C544 66.4374 544.421 65.42 545.171 64.6697C545.92 63.9194 546.937 63.4976 547.998 63.4971C549.059 63.4965 550.076 63.9173 550.827 64.6669C551.577 65.4164 551.999 66.4334 552 67.4941C552.001 68.5548 551.58 69.5723 550.831 70.323C550.082 71.0737 549.065 71.496 548.004 71.4971H548Z" fill="#22C55E"/>
<path d="M582 44.4971C580.939 44.4971 579.922 44.0758 579.172 43.3259C578.422 42.5759 578 41.5588 578 40.4981C578 39.4374 578.421 38.42 579.171 37.6697C579.92 36.9194 580.937 36.4976 581.998 36.4971C583.059 36.4965 584.076 36.9173 584.827 37.6669C585.577 38.4164 585.999 39.4334 586 40.4941C586.001 41.5548 585.58 42.5723 584.831 43.323C584.082 44.0737 583.065 44.496 582.004 44.4971L582 44.4971Z" fill="#22C55E"/>
<path d="M615 36.4971C613.939 36.4971 612.922 36.0758 612.172 35.3259C611.422 34.5759 611 33.5588 611 32.4981C611 31.4374 611.421 30.42 612.171 29.6697C612.92 28.9194 613.937 28.4976 614.998 28.4971C616.059 28.4965 617.076 28.9173 617.827 29.6669C618.577 30.4164 618.999 31.4334 619 32.4941C619.001 33.5548 618.58 34.5723 617.831 35.323C617.082 36.0737 616.065 36.496 615.004 36.4971L615 36.4971Z" fill="#22C55E"/>
<path d="M16 138.497C14.9393 138.497 13.922 138.076 13.1719 137.326C12.4218 136.576 12.0003 135.559 12 134.498C11.9997 133.437 12.4208 132.42 13.1705 131.67C13.9203 130.919 14.9373 130.498 15.998 130.497C17.0587 130.497 18.0762 130.917 18.8267 131.667C19.5771 132.416 19.9992 133.433 20 134.494C20.0008 135.555 19.5803 136.572 18.8309 137.323C18.0815 138.074 17.0647 138.496 16.004 138.497H16Z" fill="#EF4444"/>
<path d="M49 136.497C47.9393 136.497 46.922 136.076 46.1719 135.326C45.4218 134.576 45.0003 133.559 45 132.498C44.9997 131.437 45.4208 130.42 46.1705 129.67C46.9203 128.919 47.9373 128.498 48.998 128.497C50.0587 128.497 51.0762 128.917 51.8267 129.667C52.5772 130.416 52.9992 131.433 53 132.494C53.0008 133.555 52.5803 134.572 51.8309 135.323C51.0815 136.074 50.0647 136.496 49.004 136.497H49Z" fill="#EF4444"/>
<path d="M83 133.497C81.9393 133.497 80.922 133.076 80.1719 132.326C79.4218 131.576 79.0003 130.559 79 129.498C78.9997 128.437 79.4208 127.42 80.1705 126.67C80.9203 125.919 81.9373 125.498 82.998 125.497C84.0587 125.497 85.0762 125.917 85.8267 126.667C86.5772 127.416 86.9992 128.433 87 129.494C87.0008 130.555 86.5803 131.572 85.8309 132.323C85.0815 133.074 84.0647 133.496 83.004 133.497H83Z" fill="#EF4444"/>
<path d="M116 129.497C114.939 129.497 113.922 129.076 113.172 128.326C112.422 127.576 112 126.559 112 125.498C112 124.437 112.421 123.42 113.171 122.67C113.92 121.919 114.937 121.498 115.998 121.497C117.059 121.497 118.076 121.917 118.827 122.667C119.577 123.416 119.999 124.433 120 125.494C120.001 126.555 119.58 127.572 118.831 128.323C118.082 129.074 117.065 129.496 116.004 129.497H116Z" fill="#EF4444"/>
<path d="M149 122.497C147.939 122.497 146.922 122.076 146.172 121.326C145.422 120.576 145 119.559 145 118.498C145 117.437 145.421 116.42 146.171 115.67C146.92 114.919 147.937 114.498 148.998 114.497C150.059 114.497 151.076 114.917 151.827 115.667C152.577 116.416 152.999 117.433 153 118.494C153.001 119.555 152.58 120.572 151.831 121.323C151.082 122.074 150.065 122.496 149.004 122.497H149Z" fill="#EF4444"/>
<path d="M182 116.497C180.939 116.497 179.922 116.076 179.172 115.326C178.422 114.576 178 113.559 178 112.498C178 111.437 178.421 110.42 179.171 109.67C179.92 108.919 180.937 108.498 181.998 108.497C183.059 108.497 184.076 108.917 184.827 109.667C185.577 110.416 185.999 111.433 186 112.494C186.001 113.555 185.58 114.572 184.831 115.323C184.082 116.074 183.065 116.496 182.004 116.497H182Z" fill="#EF4444"/>
<path d="M216 100.497C214.939 100.497 213.922 100.076 213.172 99.3259C212.422 98.5759 212 97.5588 212 96.4981C212 95.4374 212.421 94.42 213.171 93.6697C213.92 92.9194 214.937 92.4976 215.998 92.4971C217.059 92.4965 218.076 92.9173 218.827 93.6669C219.577 94.4164 219.999 95.4334 220 96.4941C220.001 97.5548 219.58 98.5723 218.831 99.323C218.082 100.074 217.065 100.496 216.004 100.497H216Z" fill="#EF4444"/>
<path d="M249 102.497C247.939 102.497 246.922 102.076 246.172 101.326C245.422 100.576 245 99.5588 245 98.4981C245 97.4374 245.421 96.42 246.171 95.6697C246.92 94.9194 247.937 94.4976 248.998 94.4971C250.059 94.4965 251.076 94.9173 251.827 95.6669C252.577 96.4164 252.999 97.4334 253 98.4941C253.001 99.5548 252.58 100.572 251.831 101.323C251.082 102.074 250.065 102.496 249.004 102.497H249Z" fill="#EF4444"/>
<path d="M282 94.4971C280.939 94.4971 279.922 94.0758 279.172 93.3259C278.422 92.5759 278 91.5588 278 90.4981C278 89.4374 278.421 88.42 279.171 87.6697C279.92 86.9194 280.937 86.4976 281.998 86.4971C283.059 86.4965 284.076 86.9173 284.827 87.6669C285.577 88.4164 285.999 89.4334 286 90.4941C286.001 91.5548 285.58 92.5723 284.831 93.323C284.082 94.0737 283.065 94.496 282.004 94.4971H282Z" fill="#EF4444"/>
<path d="M316 90.4971C314.939 90.4971 313.922 90.0758 313.172 89.3259C312.422 88.5759 312 87.5588 312 86.4981C312 85.4374 312.421 84.42 313.171 83.6697C313.92 82.9194 314.937 82.4976 315.998 82.4971C317.059 82.4965 318.076 82.9173 318.827 83.6669C319.577 84.4164 319.999 85.4334 320 86.4941C320.001 87.5548 319.58 88.5723 318.831 89.323C318.082 90.0737 317.065 90.496 316.004 90.4971H316Z" fill="#EF4444"/>
<path d="M349 82.4971C347.939 82.4971 346.922 82.0758 346.172 81.3259C345.422 80.5759 345 79.5588 345 78.4981C345 77.4374 345.421 76.42 346.171 75.6697C346.92 74.9194 347.937 74.4976 348.998 74.4971C350.059 74.4965 351.076 74.9173 351.827 75.6669C352.577 76.4164 352.999 77.4334 353 78.4941C353.001 79.5548 352.58 80.5723 351.831 81.323C351.082 82.0737 350.065 82.496 349.004 82.4971H349Z" fill="#EF4444"/>
<path d="M382 78.4971C380.939 78.4971 379.922 78.0758 379.172 77.3259C378.422 76.5759 378 75.5588 378 74.4981C378 73.4374 378.421 72.42 379.171 71.6697C379.92 70.9194 380.937 70.4976 381.998 70.4971C383.059 70.4965 384.076 70.9173 384.827 71.6669C385.577 72.4164 385.999 73.4334 386 74.4941C386.001 75.5548 385.58 76.5723 384.831 77.323C384.082 78.0737 383.065 78.496 382.004 78.4971H382Z" fill="#EF4444"/>
<path d="M415 74.4971C413.939 74.4971 412.922 74.0758 412.172 73.3259C411.422 72.5759 411 71.5588 411 70.4981C411 69.4374 411.421 68.42 412.171 67.6697C412.92 66.9194 413.937 66.4976 414.998 66.4971C416.059 66.4965 417.076 66.9173 417.827 67.6669C418.577 68.4164 418.999 69.4334 419 70.4941C419.001 71.5548 418.58 72.5723 417.831 73.323C417.082 74.0737 416.065 74.496 415.004 74.4971H415Z" fill="#EF4444"/>
<path d="M449 74.4971C447.939 74.4971 446.922 74.0758 446.172 73.3259C445.422 72.5759 445 71.5588 445 70.4981C445 69.4374 445.421 68.42 446.171 67.6697C446.92 66.9194 447.937 66.4976 448.998 66.4971C450.059 66.4965 451.076 66.9173 451.827 67.6669C452.577 68.4164 452.999 69.4334 453 70.4941C453.001 71.5548 452.58 72.5723 451.831 73.323C451.082 74.0737 450.065 74.496 449.004 74.4971H449Z" fill="#EF4444"/>
<path d="M482 51.4971C480.939 51.4971 479.922 51.0758 479.172 50.3259C478.422 49.5759 478 48.5588 478 47.4981C478 46.4374 478.421 45.42 479.171 44.6697C479.92 43.9194 480.937 43.4976 481.998 43.4971C483.059 43.4965 484.076 43.9173 484.827 44.6669C485.577 45.4164 485.999 46.4334 486 47.4941C486.001 48.5548 485.58 49.5723 484.831 50.323C484.082 51.0737 483.065 51.496 482.004 51.4971L482 51.4971Z" fill="#EF4444"/>
<path d="M515 73.4971C513.939 73.4971 512.922 73.0758 512.172 72.3259C511.422 71.5759 511 70.5588 511 69.4981C511 68.4374 511.421 67.42 512.171 66.6697C512.92 65.9194 513.937 65.4976 514.998 65.4971C516.059 65.4965 517.076 65.9173 517.827 66.6669C518.577 67.4164 518.999 68.4334 519 69.4941C519.001 70.5548 518.58 71.5723 517.831 72.323C517.082 73.0737 516.065 73.496 515.004 73.4971H515Z" fill="#EF4444"/>
<path d="M548 181.497C546.939 181.497 545.922 181.076 545.172 180.326C544.422 179.576 544 178.559 544 177.498C544 176.437 544.421 175.42 545.171 174.67C545.92 173.919 546.937 173.498 547.998 173.497C549.059 173.497 550.076 173.917 550.827 174.667C551.577 175.416 551.999 176.433 552 177.494C552.001 178.555 551.58 179.572 550.831 180.323C550.082 181.074 549.065 181.496 548.004 181.497H548Z" fill="#EF4444"/>
<path d="M582 150.497C580.939 150.497 579.922 150.076 579.172 149.326C578.422 148.576 578 147.559 578 146.498C578 145.437 578.421 144.42 579.171 143.67C579.92 142.919 580.937 142.498 581.998 142.497C583.059 142.497 584.076 142.917 584.827 143.667C585.577 144.416 585.999 145.433 586 146.494C586.001 147.555 585.58 148.572 584.831 149.323C584.082 150.074 583.065 150.496 582.004 150.497H582Z" fill="#EF4444"/>
<path d="M615 70.4971C613.939 70.4971 612.922 70.0758 612.172 69.3259C611.422 68.5759 611 67.5588 611 66.4981C611 65.4374 611.421 64.42 612.171 63.6697C612.92 62.9194 613.937 62.4976 614.998 62.4971C616.059 62.4965 617.076 62.9173 617.827 63.6669C618.577 64.4164 618.999 65.4334 619 66.4941C619.001 67.5548 618.58 68.5723 617.831 69.323C617.082 70.0737 616.065 70.496 615.004 70.4971H615Z" fill="#EF4444"/>
</svg>
