<svg width="24" height="24" viewBox="0 0 24 24" fill="none" xmlns="http://www.w3.org/2000/svg">
  <circle cx="12" cy="12" r="12" fill="#F7931A"/>
  <path d="M17.1 10.1C17.5 8.8 16.6 8.1 15.3 7.7L15.8 5.9L14.7 5.6L14.3 7.3C14 7.2 13.7 7.1 13.4 7L13.8 5.3L12.7 5L12.2 6.8C12 6.7 11.8 6.7 11.6 6.6L11.6 6.6L10.1 6.2L9.8 7.4S10.6 7.6 10.6 7.6C11 7.7 11.1 8 11 8.2L10.4 10.3C10.4 10.3 10.5 10.3 10.5 10.3L10.4 10.3L9.6 13.2C9.5 13.4 9.3 13.7 8.9 13.6C8.9 13.6 8.1 13.4 8.1 13.4L7.6 14.7L9 15.1C9.3 15.2 9.5 15.2 9.8 15.3L9.3 17.1L10.4 17.4L10.9 15.6C11.2 15.7 11.5 15.8 11.8 15.8L11.3 17.6L12.4 17.9L12.9 16.1C14.8 16.4 16.2 16.2 16.8 14.5C17.3 13.2 16.8 12.4 15.8 11.9C16.5 11.7 17 11.1 17.1 10.1ZM14.8 13.9C14.5 15.3 12.4 14.6 11.7 14.4L12.4 11.7C13.1 11.9 15.1 12.4 14.8 13.9ZM15.1 10.1C14.8 11.3 13.1 10.7 12.5 10.6L13.1 8.2C13.7 8.3 15.4 8.7 15.1 10.1Z" fill="white"/>
</svg> 